<?xml version="1.0" encoding="utf-8"?>
<!-- Generator: Adobe Illustrator 26.3.1, SVG Export Plug-In . SVG Version: 6.00 Build 0)  -->
<svg version="1.1" id="Layer_1" xmlns="http://www.w3.org/2000/svg" xmlns:xlink="http://www.w3.org/1999/xlink" x="0px" y="0px"
	 viewBox="0 0 84 26" style="enable-background:new 0 0 84 26;" xml:space="preserve">
<g>
	<path d="M36.8,7.2c0-1.9,0-3.8,0-5.7C36.8,0.5,37,0,38,0.1c1.8,0.3,3.8-0.4,5.5,0.9c0.2,0.1,0.7-0.1,1-0.2c3.1-1.6,6.3,0.3,6.4,3.7
		c0,2.8,0,5.6,0,8.4c0,1-0.4,1.3-1.3,1.3c-1,0-1.4-0.3-1.4-1.4c0-2.5,0-5,0-7.5c0-0.5,0.1-1-0.1-1.3c-0.3-0.5-0.9-1.2-1.3-1.2
		c-0.5,0-1.2,0.6-1.5,1.1c-0.3,0.3-0.2,0.9-0.2,1.4c0,2.5,0,5,0,7.5c0,0.9-0.2,1.4-1.2,1.4c-1,0-1.3-0.5-1.2-1.4c0-2.5,0-5,0-7.5
		c0-0.2,0-0.5,0-0.7c-0.1-1-0.5-1.7-1.6-1.9c-0.8-0.1-1.5,0.8-1.5,1.9c0,2.7-0.1,5.4,0,8.2c0,1.2-0.4,1.5-1.5,1.5
		c-0.9,0-1.3-0.4-1.2-1.3C36.8,11,36.8,9.1,36.8,7.2C36.8,7.2,36.8,7.2,36.8,7.2z"/>
	<path d="M1,7.1c0.1-4.1,3.1-6.9,7-7c3.8-0.1,7,3.2,6.9,7c0,3.9-3,7-6.9,7C3.9,14.2,1,11.2,1,7.1z M12.3,7.1c0-2.4-2.1-4.5-4.4-4.5
		c-2.3,0-4.4,2.2-4.4,4.5c0,2.4,2,4.5,4.4,4.5C10.3,11.7,12.3,9.6,12.3,7.1z"/>
	<path d="M52.3,7.2c0-1.9,0-3.9,0-5.8c0-0.9,0.4-1.3,1.3-1.3c2.1,0.1,4.3,0,6.4,0c2.6,0,4.4,1.8,4.4,4.2c0,2.4-1.8,4.1-4.4,4.2
		c-1.3,0-2.6,0-3.8,0c-0.9,0-1.3,0.4-1.2,1.3c0,1,0,2.1,0,3.1c0.1,1-0.4,1.4-1.4,1.4c-1,0-1.3-0.4-1.3-1.3c0-0.9,0-1.9,0-2.8
		C52.3,9.1,52.3,8.2,52.3,7.2z M58.1,5.9c0.6,0,1.2,0,1.8,0c1.3,0,2-0.5,2-1.5c0-1-0.8-1.7-2-1.7c-1.1,0-2.2,0-3.3,0
		C55,2.6,55,2.7,55,4.2c0,1.6,0.1,1.7,1.7,1.7C57.1,5.8,57.6,5.8,58.1,5.9z"/>
	<path d="M70.1,7.2c0.3-3.7,1.5-5.5,5.1-6.8c2.8-1,6.2,0.5,7.9,3.3c0.5,0.8-0.1,1-0.5,1.4c-0.5,0.4-0.9,0.9-1.6,0.1
		c-0.5-0.6-1-1.2-1.6-1.7c-1.2-0.9-2.5-1.3-3.9-0.5c-1.5,0.8-2.5,2-2.7,3.7c-0.2,2,0.8,3.7,2.5,4.5c1.6,0.8,3.2,0.5,4.7-1
		c0.2-0.2,0.5-0.5,0.7-0.7c0.8-0.8,1.6-0.8,2.3,0.1c0.1,0.2,0.2,0.6,0.1,0.9c-1.8,3-4.6,4.1-7.9,3.3C72.1,13.1,70.1,10.5,70.1,7.2z"
		/>
	<path d="M22.5,0.3c1.6-0.3,2.9-0.4,3.8,1.2c0.5,0.8,1.2,1.5,1.8,2.3c0.5,0.6,0.8,0.5,1.2,0C30,3,30.7,2.3,31.2,1.4
		c0.7-1.2,1.7-1.4,2.9-1.3c0.9,0.1,1,0.5,0.5,1.1c-1.2,1.6-2.6,3.2-3.7,4.9c-0.5,0.7-0.8,1.6-0.9,2.4c-0.1,1.5-0.1,3,0,4.4
		c0,0.9-0.4,1.2-1.3,1.2c-0.9,0-1.3-0.3-1.3-1.2c0-1.6,0.1-3.2,0-4.8c0-0.7-0.3-1.4-0.7-1.9c-1.2-1.7-2.6-3.4-3.9-5.1
		C22.8,1,22.7,0.7,22.5,0.3z"/>
	<path d="M16.4,7.1c0-1.9,0-3.8,0-5.7c0-0.9,0.3-1.4,1.3-1.4c1,0,1.3,0.5,1.3,1.4c0,2.9,0,5.8,0,8.8c0,1,0.3,1.5,1.4,1.4
		c1-0.1,2.1,0,3.1,0c0.9,0,1.1,0.5,1.1,1.3c0,0.8-0.2,1.3-1.1,1.3c-2,0-3.9,0-5.9,0c-0.9,0-1.1-0.5-1.1-1.3
		C16.5,11,16.4,9.1,16.4,7.1z"/>
	<path d="M31.8,22.1c-0.8,0-1.6,0-2.5,0c-0.3,0-0.7,0.2-0.8,0.3c-0.1,0.2,0.1,0.6,0.3,0.9c0.8,1,2.1,1.2,3.3,0.5
		c0.4-0.2,0.9-0.3,1.2-0.2c0.6,0.2,0.8,0.7,0.1,1.2c-1.7,1.4-4.1,1.3-5.8-0.2c-1.5-1.4-1.8-3.8-0.7-5.7c1.1-1.8,3.4-2.5,5.4-1.7
		c1.6,0.6,2.5,1.9,2.8,3.5c0.2,0.9-0.1,1.4-1.1,1.4C33.4,22.1,32.6,22.2,31.8,22.1C31.8,22.2,31.8,22.1,31.8,22.1z M30.8,20.6
		C30.8,20.7,30.8,20.7,30.8,20.6c0.5,0,1.1,0,1.6,0c0.3,0,0.7-0.2,0.7-0.3c0-0.3-0.1-0.6-0.3-0.9c-1-1.2-2.7-1.4-3.8-0.3
		c-0.3,0.3-0.4,0.7-0.6,1c0.4,0.1,0.7,0.3,1.1,0.4C30,20.7,30.4,20.6,30.8,20.6z"/>
	<path d="M58,22.6c0.9,1,1.8,1.9,2.8,3c-1,0.6-1.7,0.3-2.3-0.2c-1-0.8-1.8-1.8-2.8-2.6c-0.3-0.3-0.8-0.5-1.2-0.4
		c-0.3,0.1-0.5,0.7-0.5,1.1c-0.1,0.6,0.1,1.2-0.1,1.7c-0.1,0.3-0.5,0.8-0.7,0.8c-0.3,0-0.9-0.5-0.9-0.7c-0.1-2.5,0-4.9,0.1-7.4
		c0-0.3,0.7-0.7,1-0.7c1.3-0.1,2.5,0,3.8,0c1.4,0,2.3,0.7,2.7,1.8c0.4,1.2,0,2.3-1.2,3.1c-0.2,0.1-0.4,0.3-0.6,0.4
		C58,22.3,58,22.3,58,22.6z M56,20.6C56,20.6,56,20.6,56,20.6c0.4,0,0.8,0.1,1.1,0c0.5-0.3,0.9-0.7,1.3-1.1
		c-0.4-0.4-0.8-0.9-1.3-1.1c-0.7-0.2-1.6-0.2-2.3,0c-0.4,0.1-0.8,0.6-0.9,1c0,0.3,0.4,0.9,0.7,1C55,20.8,55.6,20.6,56,20.6z"/>
	<path d="M16.6,22.1c-0.9,0-1.7,0-2.6,0c-0.9,0-1,0.5-0.5,1.1c0.7,1,2.2,1.3,3.3,0.7c0.3-0.1,0.5-0.4,0.7-0.4c0.4,0,0.8,0.2,1,0.5
		c0.1,0.1-0.1,0.7-0.4,0.8c-1.8,1.3-3.7,1.3-5.5-0.1c-1.5-1.2-2-3.3-1.3-5.1c0.7-1.8,2.7-2.9,4.8-2.7c1.9,0.3,3.4,1.8,3.7,3.7
		c0.2,1-0.1,1.5-1.2,1.4C18.1,22.1,17.3,22.2,16.6,22.1C16.6,22.1,16.6,22.1,16.6,22.1z M15.6,20.7C15.6,20.7,15.6,20.7,15.6,20.7
		c0.6,0,1.2,0.1,1.7-0.1c0.2-0.1,0.5-0.8,0.5-0.9c-0.7-0.5-1.4-1.2-2.1-1.2c-0.7,0-1.6,0.5-2.2,1.1c-0.5,0.5-0.2,1,0.5,1
		C14.5,20.7,15.1,20.7,15.6,20.7z"/>
	<path d="M68.5,7.2c0,1.9,0,3.9,0,5.8c0,0.9-0.3,1.3-1.2,1.3c-0.9,0-1.3-0.3-1.3-1.2c0-3.9,0-7.7,0-11.6c0-0.9,0.3-1.3,1.2-1.3
		c0.9,0,1.3,0.4,1.3,1.3C68.5,3.3,68.5,5.2,68.5,7.2C68.5,7.2,68.5,7.2,68.5,7.2z"/>
	<path d="M40.9,17c1.2,0.1,2.6,0.5,3.4,1.9c0.2,0.3-0.1,0.8-0.1,1.2c-0.4,0-0.7,0-1.1-0.2c-0.2-0.1-0.3-0.4-0.5-0.5
		c-1.2-1.1-2.6-1.2-3.7-0.1c-1.2,1.2-1.3,2.8-0.1,4.1c1.1,1.2,2.6,1.2,3.8,0.1c0.2-0.2,0.4-0.5,0.6-0.6c0.3-0.1,0.8-0.2,1-0.1
		c0.2,0.2,0.3,0.8,0.2,1c-0.8,1.4-2.1,2-3.6,2c-2.5,0.1-4.4-1.7-4.4-4.1C36.3,18.8,38,17,40.9,17z"/>
	<path d="M69.6,17c1,0,2.2,0.6,3.1,1.8c0.2,0.3,0,0.8,0,1.3c-0.4-0.1-0.9-0.1-1.3-0.2c-0.1,0-0.2-0.2-0.3-0.4
		c-1-1.1-2.1-1.3-3.3-0.6c-1,0.6-1.6,2.2-1.2,3.4c0.5,1.4,1.5,2.2,2.9,2c0.7-0.1,1.3-0.6,1.8-1.1c0.5-0.5,0.9-0.9,1.5-0.3
		c0.6,0.6,0.1,1-0.3,1.5c-1.5,1.6-3.7,2-5.5,1c-1.8-1-2.6-3-2.1-5.2C65.4,18.3,67.1,17,69.6,17z"/>
	<path d="M49,22.3c0,0.8,0.1,1.6,0,2.3c-0.1,0.4-0.5,0.8-0.8,1.2c-0.2-0.4-0.7-0.8-0.7-1.2c-0.1-1.6,0-3.2,0-4.8
		c0-0.9-0.2-1.4-1.2-1.4c-0.3,0-0.7-0.5-1-0.8c0.4-0.2,0.7-0.7,1.1-0.7c1.3-0.1,2.6-0.1,3.9,0c0.4,0,0.7,0.5,1.1,0.7
		c-0.3,0.3-0.7,0.8-1,0.8c-1.1,0-1.3,0.5-1.3,1.4C49.1,20.7,49,21.5,49,22.3C49,22.3,49,22.3,49,22.3z"/>
	<path d="M21.1,21.3c0-1.1-0.1-2.2,0-3.3c0-0.4,0.5-0.7,0.7-1.1c0.2,0.4,0.7,0.7,0.7,1.1c0.1,1.6,0.1,3.2,0,4.8
		c-0.1,1.2,0.4,1.6,1.5,1.5c0.4,0,0.9-0.1,1.2,0c0.3,0.1,0.7,0.5,0.7,0.8c0,0.3-0.4,0.8-0.7,0.8c-1.1,0.1-2.3,0.1-3.4,0
		c-0.3,0-0.7-0.6-0.7-1C21,23.6,21.1,22.5,21.1,21.3z"/>
	<path d="M63.7,21.4c0,1.1,0.1,2.3,0,3.4c0,0.4-0.5,0.7-0.8,1c-0.2-0.3-0.7-0.6-0.7-1c-0.1-2.3-0.1-4.7,0-7c0-0.3,0.5-0.6,0.7-0.9
		c0.3,0.3,0.7,0.7,0.8,1C63.7,19.1,63.7,20.2,63.7,21.4z"/>
</g>
</svg>
