<?xml version="1.0" encoding="utf-8"?>
<!-- Generator: Adobe Illustrator 26.3.1, SVG Export Plug-In . SVG Version: 6.00 Build 0)  -->
<svg version="1.1" id="Layer_1" xmlns="http://www.w3.org/2000/svg" xmlns:xlink="http://www.w3.org/1999/xlink" x="0px" y="0px"
	 viewBox="0 0 84 26" style="enable-background:new 0 0 84 26;" xml:space="preserve">
<g>
	<path d="M3.4,12.3c1.8-2,3.6-3.9,5.4-5.9c0.8,0.9,1.3,1.4,2,2.1c-1.3,1.2-2.6,2.4-4,3.6c2,2,3.9,3.9,5.9,6c1.2-1.3,2.5-2.7,3.8-4.2
		c0.6,0.7,1.1,1.2,1.5,1.7c-1.9,1.8-3.7,3.7-5.7,5.7c-2.6-2.6-5.3-5.3-8-8c-0.3-0.3-0.7-0.5-1-0.7C3.4,12.4,3.4,12.3,3.4,12.3z"/>
	<path d="M12.7,3.1c0.3,0.3,0.5,0.7,0.8,1c2.7,2.7,5.4,5.4,8.2,8.2c-0.6,0.6-1.2,1.1-1.6,1.5c-3-3-6-6-9.1-9.1
		c0.4-0.4,0.9-1,1.5-1.6C12.6,3.1,12.6,3.1,12.7,3.1z"/>
	<path d="M43.4,14c0,1.3,0,2.6,0,3.8c-0.8,0-1.5,0-2.3,0c0-3.7,0-7.3,0-11c2.4,0,4.7-0.2,7,0c1.9,0.2,2.7,1.4,2.7,3.3
		c0,2-0.8,3.2-2.6,3.6c-0.8,0.2-1.6,0.1-2.4,0.2C45.1,14,44.3,14,43.4,14z M43.4,12c1.3-0.1,2.5,0,3.7-0.2c0.8-0.1,1.2-0.7,1.2-1.5
		c0-0.9-0.4-1.4-1.2-1.5c-1.2-0.1-2.4,0-3.7,0C43.4,9.8,43.4,10.8,43.4,12z"/>
	<path d="M60.9,17.7c-2.2,0.5-2.4,0.4-3.1-1.4c-0.9-2.3-1.8-4.7-2.7-7c0,0-0.1,0-0.2-0.1c-0.9,2.3-1.7,4.7-2.6,7c-0.7,2-0.7,2-3,1.7
		c1-2.4,2-4.9,3-7.3c0.3-0.8,0.6-1.5,1-2.3c0.7-1.6,0.8-1.7,2.6-1.5c0.3,0,0.6,0.2,0.7,0.5C57.9,10.7,59.4,14.2,60.9,17.7z"/>
	<path d="M69.4,6.7c0,0.6,0,1.1,0,1.8c-1.2,0-2.3,0-3.5,0c-2,0-2.8,0.8-3,2.8c0,0,0,0.1,0,0.1c-0.2,3.8,0.5,4.7,4.1,4.5
		c0.8,0,1.5,0,2.3,0c0,0.7,0,1.3,0,1.8c-1.9,0-3.6,0-5.4,0c-0.1,0-0.2,0-0.3-0.1c-2.3-0.7-3.5-2.8-3.2-6c0.3-3,1.6-4.7,4.1-4.9
		C66,6.6,67.6,6.7,69.4,6.7z"/>
	<path d="M30.8,17.8c-2.4,0-4.9,0-7.4,0c0-3.7,0-7.3,0-11.1c2.4,0,4.9,0,7.4,0c0,0.6,0,1.2,0,1.9c-1.8,0-3.5,0-5.3,0
		c0,2.4,0,4.7,0,7.1c1.7,0,3.5,0,5.3,0C30.8,16.6,30.8,17.2,30.8,17.8z"/>
	<path d="M80.6,6.8c-1.5,1.8-2.9,3.6-4.3,5.4c1.4,1.8,2.9,3.7,4.3,5.5c-1.9,0.6-2.7,0.3-3.9-1.2c-0.9-1.2-1.7-2.4-2.7-3.5
		c-0.5-0.6-0.4-1,0-1.5c0.9-1,1.8-2,2.5-3.2C77.6,6.6,78.9,6.4,80.6,6.8z"/>
	<path d="M72.7,6.8c0,3.7,0,7.3,0,11.1c-0.7,0-1.4,0-2.2,0c0-3.7,0-7.3,0-11.1C71.2,6.8,71.9,6.8,72.7,6.8z"/>
	<path d="M39.5,11.2c0,0.7,0,1.3,0,1.9c-2.5,0-4.9,0-7.4,0c0-0.6,0-1.3,0-1.9C34.6,11.2,37,11.2,39.5,11.2z"/>
	<path d="M39.5,15.9c0,0.6,0,1.2,0,1.9c-2.5,0-4.9,0-7.4,0c0-0.6,0-1.2,0-1.9C34.6,15.9,37,15.9,39.5,15.9z"/>
	<path d="M32.1,8.6c0-0.6,0-1.2,0-1.9c1.3,0,2.5,0,3.7,0c1.2,0,2.4,0,3.7,0c0,0.7,0,1.2,0,1.9C37.1,8.6,34.6,8.6,32.1,8.6z"/>
	<path d="M14.4,12.3c-0.6,0.6-1.2,1.2-1.8,1.7c-0.6-0.6-1.1-1.1-1.8-1.8c0.6-0.5,1.3-1.1,2-1.7C13.2,11,13.8,11.6,14.4,12.3z"/>
</g>
</svg>
