<?xml version="1.0" encoding="utf-8"?>
<!-- Generator: Adobe Illustrator 26.3.1, SVG Export Plug-In . SVG Version: 6.00 Build 0)  -->
<svg version="1.1" id="Layer_1" xmlns="http://www.w3.org/2000/svg" xmlns:xlink="http://www.w3.org/1999/xlink" x="0px" y="0px"
	 viewBox="0 0 84 26" style="enable-background:new 0 0 84 26;" xml:space="preserve">
<g>
	<path d="M74.7,9.5c-1,1.5-1.8,1.6-3.2,0.6c-1.8,1.1-3.7,0.9-5.1-0.6c-2.6,1.6-3.1,1.7-4.5,0.5c-1.2,1.1-1.2,1.1-2.6,0.2
		c-1.1,0.2-2,0.4-2.9,0.5c-0.6,0-1.1,0.1-1.4,0.7c-0.8,1.2-1.9,2-3.4,1.6c-0.5-0.1-0.9-0.4-1.3-0.8c1.4,0.1,2.7-0.2,3.8-1.3
		c-0.6,0-1-0.1-1.4-0.1c-0.7,0-0.9-0.5-0.6-1c0.5-0.8,1-1.5,1.7-2.1c0.3-0.3,1.1-0.4,1.5-0.2c0.3,0.2,0.4,0.9,0.6,1.3
		c0,0.1,0,0.3-0.1,0.5c1.1,0.2,2.1-0.1,2.9-0.9c1.9-1.9,1.9-1.8,3.6,0c1,1,1.6,1.1,2.9,0.4c0.5-0.2,0.9-0.6,1.4-0.9
		c-0.9-0.8-1.9-0.4-3-0.2c0.5-1.1,1.3-1.5,2.5-1.3c1.3,0.2,2.6,0.6,3.9,0.9c0,0.7-0.3,1-1.1,1.1c-0.5,0-1,0.2-1.5,0.4
		c1.3,0.5,2.6,0.5,3.8-0.3c0.2-0.1,0.4-0.3,0.6-0.5c1.3-1,1.5-1,2.6,0.3c0.1,0.1,0.2,0.2,0.2,0.3C74.7,9.1,74.7,9.3,74.7,9.5z
		 M61,9.5c0.1-0.1,0.1-0.2,0.2-0.3c-0.2-0.2-0.5-0.5-0.8-0.6c-0.1,0-0.4,0.3-0.8,0.6C60.3,9.4,60.7,9.5,61,9.5z"/>
	<path d="M66.6,24.6c0.2-0.6,0.4-1.2,0.7-2c-0.7,0-1.4,0-2,0.1c-0.8,0.1-1.1-0.3-1.4-1.6c-0.2,0.1-0.4,0.2-0.5,0.3
		c-0.1,0.1-0.2,0.2-0.3,0.3c-0.8,0.9-1.8,1.2-2.4,0.8c-0.6-0.4-0.6-1.3,0-2.4c0.1-0.2,0.2-0.4,0.3-0.6c0,0,0,0,0,0
		c0.4-0.2,0.8-0.5,1.2-0.7c1.1-0.4,1.7,0,1.7,1.2c0,0.1,0,0.3,0,0.4c0.1,0.1,0.2,0.2,0.4,0.3c0-0.2,0.1-0.4,0.1-0.6
		c0.1-0.3,0.2-0.6,0.4-0.8c0.3-0.3,0.6-0.4,1-0.6c0,0.4,0,0.8-0.1,1.1c-0.1,0.4-0.4,0.8-0.6,1.2c-0.1,0.2,0.1,0.5,0.1,0.8
		c0.2-0.1,0.5-0.2,0.6-0.4c0.4-0.6,0.6-1.3,1-1.9c0.1-0.2,0.2-0.4,0.3-0.5c0.2-0.1,0.5-0.1,0.7-0.2c0,0.2,0.1,0.5,0.1,0.7
		c-0.2,0.5-0.5,0.9-0.7,1.3c-0.2,0.4-0.3,0.7-0.4,1.1c0.1,0.1,0.2,0.2,0.2,0.2c0.3-0.2,0.8-0.4,0.9-0.7c0.3-0.6,0.4-1.4,0.7-2.1
		c0.1-0.2,0.4-0.6,0.6-0.6c0.5-0.1,1-0.1,1.6,0c0.6,0,1,0.3,1.1,0.9c0.3,1.7-1.6,3.5-3.3,3.1c-0.4,0.7-0.8,1.4-1.1,2.1
		C67.2,24.6,66.9,24.6,66.6,24.6z M69.3,21.7c1-0.2,1.7-1,1.7-1.8c0-0.4-0.2-0.6-0.6-0.4C69.8,19.7,69.2,21,69.3,21.7z M63.2,19.6
		c-0.1-0.1-0.2-0.1-0.2-0.2c-1,0.2-1.8,1.3-1.5,2.3c0.9-0.2,1.1-0.5,1-1C62.7,20.2,63,19.9,63.2,19.6z"/>
	<path d="M9.3,10.1c0.9-0.8,1.7-1.6,2.6-2.4C11.4,6.8,11,6,10.5,5.2c-0.2-0.4-0.5-0.8,0-1c0.2-0.1,0.8,0.1,1,0.4
		C12,5.3,12.5,6.1,13,7c1-0.8,2-1.6,3-2.3c0.3-0.2,0.7-0.1,1-0.2c0,0.4,0.1,0.8,0,1.3c0,0.1-0.3,0.3-0.4,0.3c-1-0.5-1.4,0.4-2,0.8
		C14.5,6.9,14.4,7,14.3,7c-0.8,0.4-0.9,0.8-0.5,1.7c0.6,1.1,0,2.1-1.4,2.1c-1.1,0-2.2-0.1-3.2-0.2C9.3,10.4,9.3,10.2,9.3,10.1z
		 M12.4,8.4c-0.4,0.4-0.7,0.7-1.2,1.1c0.6,0,1.1,0,1.7,0C12.7,9.1,12.6,8.8,12.4,8.4z"/>
	<path d="M37.8,21.7c0.8-0.5,1.4-1,1.4-2c0-0.4,0.3-0.9,0.4-1.3c0.3,0.1,0.3,0.1,0.4,0.2c0.6,1,0.6,1,1.8,0.4
		c0.2-0.1,0.4-0.2,0.6-0.3c1-0.4,1.5,0,1.6,1.1c0,0.2,0,0.4,0,0.6c0.1,0,0.2,0,0.2,0.1c0.1-0.2,0.3-0.4,0.3-0.7
		c0.7-1.8,1.7-3.4,3.2-4.7c0.3-0.3,0.8-0.3,1.2-0.5c0.1,0.5,0.5,1,0.4,1.5c-0.2,1.4-1.2,2.5-2.2,3.4c-0.5,0.4-1.1,0.7-1.6,1.2
		c-0.2,0.2-0.4,0.5-0.3,0.7c0.1,0.2,0.5,0.4,0.7,0.4c0.6,0,1-0.3,1.2-0.9c0.4-1.1,1.1-2,2.4-2.1c0.5-0.1,1.1,0.1,1.6,0.4
		c-1.8,0.1-2.8,1-3,2.8c0.3-0.2,0.7-0.2,0.9-0.5c0.3-0.4,0.5-0.9,0.8-1.2c0.2-0.2,0.6-0.3,0.9-0.5c0.1,0.1,0.2,0.2,0.2,0.3
		c-0.2,0.5-0.5,0.9-0.7,1.4c-0.1,0.2,0,0.5,0.1,0.7c0,0.1,0.2,0.3,0.1,0.4c0,0.1-0.2,0.2-0.4,0.2c-0.6,0-1.2,0.2-1.7,0
		c-1-0.4-2-0.1-2.9,0.1c-0.6,0.1-1.1-0.3-1.2-0.9c-0.1-0.3-0.1-0.6-0.1-0.8c-0.1-0.1-0.3-0.2-0.4-0.3c-0.1,0.3-0.1,0.6-0.3,0.7
		c-0.3,0.4-0.6,0.8-1,0.9c-0.5,0.2-1.2,0.3-1.6,0.1c-0.3-0.1-0.3-0.9-0.4-1.4c0-0.2,0-0.5,0.1-0.7c-0.1,0-0.1-0.1-0.2-0.1
		c-0.1,0.2-0.2,0.4-0.4,0.6c-0.6,0.6-1.2,1.3-2,1.8c-0.8,0.5-1.6-0.2-1.4-1.1c0.1-0.7,0.3-1.5,0.6-2.2c0.1-0.2,0.4-0.3,0.6-0.5
		c0.1,0.2,0.4,0.4,0.4,0.7c0,0.3-0.2,0.7-0.2,1c-0.1,0.4-0.2,0.9-0.4,1.3C37.6,21.7,37.7,21.7,37.8,21.7z M48.3,15.8
		c-1.2,1-2.1,2.3-2.7,3.8C47,18.6,48.2,17.6,48.3,15.8z M43.1,19.4c-1.2,0.3-1.9,1.3-1.7,2.3c1.3,0.3,1-1.1,1.6-1.6
		C43.1,20,43.1,19.7,43.1,19.4z"/>
	<path d="M18.9,15.6c-0.7-0.2-1.5-0.4-2.3-0.6c-0.2,0-0.4,0.3-0.7,0.5c-0.3,0.2-0.5,0.4-0.8,0.5c0-0.3-0.2-0.9-0.1-1
		c0.5-0.3,1-0.7,1.6-0.7c0.9,0,1.7,0.3,2.6,0.4c0.4,0.1,0.9,0,1.2-0.1c1.2-0.5,2.4-0.9,3.5,0c0.3,0.2,0.6,0.8,0.6,1.1
		c0,0.2-0.6,0.4-1,0.7c-0.1,0-0.2,0.1-0.3,0c-1.7-0.3-1.9,1-2.4,2.1c0.2,0,0.3-0.1,0.4,0c0.4,0.1,1,0,1.2,0.2c0.2,0.2,0.1,0.8,0,1.2
		c-0.2,0.6-0.5,1.1-0.7,1.8c0.3,0,0.5,0,0.8,0.1c-0.2,0.2-0.2,0.4-0.4,0.5c-0.4,0.1-0.8,0.2-1.2,0.2c-0.1,0-0.3-0.4-0.2-0.6
		c0.1-0.5,0.3-0.9,0.5-1.4c0.1-0.3,0.2-0.7,0.3-1c-0.8-0.2-1.2,0.2-1.4,0.7c-0.3,0.5-0.5,1.1-0.7,1.6c-0.2,0.6-0.7,0.9-1.4,0.8
		c0.6-2.3,1.8-4.3,2.8-6.4c-0.7-0.3-1,0-1.3,0.5c-0.6,1.2-1.2,2.5-1.8,3.7c-0.4,0.7-0.8,1.4-1.4,2c-0.9,0.9-2.5,1-3.5,0.3
		c-0.2-0.2-0.3-0.5-0.5-0.8c0.3-0.1,0.6-0.2,0.9-0.2c2,0.6,2.3,0.5,3.2-1.4C17.2,18.9,18,17.3,18.9,15.6z M23.7,15.7
		c0-0.1,0-0.2,0-0.3c-0.9-0.6-1.9-0.7-2.7,0.2C21.9,15.6,22.8,15.7,23.7,15.7z"/>
	<path d="M22.8,9.1c-0.7-0.1-1.5,0.4-1.9-0.5c-0.4-0.9,0.4-1.3,1-1.8c0.9-0.8,2-0.9,2.5-0.5c0.6,0.5,0.6,1.4,0,2.5
		c-0.6,1.2-1.6,2.1-3.1,2c-0.2,0-0.4,0-0.5,0c-1.2-0.2-2.1,0.1-2.9,1.2c-1.2,1.5-2.8,1.6-4,0.5c-0.1-0.1-0.2-0.2-0.3-0.4
		c0.8,0,1.5,0.1,2.1,0c0.6-0.1,1.2-0.6,1.8-0.9c0-0.1-0.1-0.3-0.1-0.4c-0.4,0-0.8,0-1.3,0c-0.8-0.1-1-0.5-0.6-1.1
		c0.6-0.7,1.2-1.5,2-2c1-0.7,1.7-0.2,1.8,1c0,0.2,0,0.5,0,0.8C20.6,9.3,21.8,9.8,22.8,9.1z"/>
	<path d="M28.8,8.2c0.2,0.5,0.3,0.6,0.4,0.7c0.3,0.7,0.8,0.8,1.4,0.5c0.9-0.5,1.7-1,2.6-1.5c0.5-0.3,1.1-0.4,1.7-0.5
		c0.6-0.1,1.3,0.2,1.4,0.9c0.1,0.5,0,1.3-0.4,1.7c-0.5,0.5-1.3,0.7-2,0.8c-1.1,0.1-2.3,0.1-3.4,0c-0.7,0-1.3-0.2-2-0.5
		c-0.3,0.2-0.5,0.4-0.8,0.5c-1.2,0.6-2.3-0.2-2-1.5c0.3-1.5,0.9-3,1.4-4.4c0.1-0.2,0.6-0.3,0.9-0.4C28,4.7,28.1,5,28,5.3
		c-0.3,1.1-0.8,2.2-1.1,3.4c-0.1,0.3,0,0.6,0,0.9c0.3-0.1,0.7,0,1-0.2C28.3,9,28.5,8.6,28.8,8.2z M35,9.5c0.1-0.1,0.1-0.1,0.2-0.2
		c-0.3-0.3-0.5-0.7-0.8-0.8c-0.9-0.2-1.5,0.3-2.3,1C33.2,9.5,34.1,9.5,35,9.5z"/>
	<path d="M46.6,9.4C46.4,7.8,47,6.6,48,6.2c1-0.3,2,0.1,2.5,1.1c-0.6,0-1.3-0.2-2-0.1c-0.5,0.1-0.9,0.6-1.3,1c0.5,0.4,1,0.9,1.5,1.1
		c0.5,0.2,1.2,0,2,0c-0.6,0.9-1.2,1.5-2.3,1.5c-1.5-0.1-3,0-4.5,0c-0.6,0-1.1-0.3-1.6-0.4c-0.3,0-0.6,0-0.8,0.1
		c-0.7,0.3-1.5,0.7-2,0C39,9.7,40,9.3,40.3,8.7c0,0,0.1-0.1,0.1-0.1c1.1-1,3-1,3.7-2.7c0.2,1.3-0.5,2.3-0.7,3.5
		C44.5,9.4,45.5,9.4,46.6,9.4z M40.9,9.3c1.1,0.3,1.4,0.1,1.8-1.2C42,8.5,41.4,8.9,40.9,9.3z"/>
	<path d="M56.7,17.2c0.4-0.5,0.7-0.9,1.1-1.4c-0.1-0.1-0.1-0.2-0.2-0.3c-0.3,0.1-0.7,0.1-1,0.3c-1.4,1.2-2.4,2.7-2.7,4.5
		c-0.1,0.4,0.3,0.9,0.4,1.3c0.4-0.2,0.9-0.2,1.2-0.5c0.4-0.3,0.6-0.8,0.9-1.3c-0.2-0.1-0.2-0.1-0.3-0.2c-0.3-0.1-1,0.2-0.9-0.5
		c0-0.6,0.5-0.6,1-0.6c1.9-0.1,1.7,0.3,1.1,1.8c-0.4,1-1,1.8-2.1,2.1c-1.3,0.4-2.3-0.2-2.5-1.5c-0.4-2.2,2.1-6,4.3-6.4
		c0.4-0.1,1.1,0.1,1.4,0.5c0.5,0.5,0.3,1.2-0.1,1.7C57.9,17.4,57.4,17.5,56.7,17.2z"/>
	<path d="M31.6,17.5c0.5-0.5,1-0.9,1.4-1.4c0.2-0.3,0.3-0.7,0.4-1.1c-0.4,0-0.9-0.1-1.3,0c-1.4,0.7-1.7,1.9-0.7,3.2
		c0.8,1,1,2.1,0.3,3.3c-0.6,1-1.6,1.5-2.8,1.3c-0.8-0.1-1.3-0.6-1.4-1.4c-0.1-0.6,0.6-1.8,1.2-1.9c0.1,0,0.4,0,0.5,0.1
		c0.1,0.1,0.1,0.4,0,0.5c-0.1,0.3-0.4,0.5-0.5,0.7c-0.4,0.7-0.1,1.1,0.6,1.2c1,0.1,1.9-1.1,1.5-2c-0.2-0.5-0.6-1-0.9-1.4
		c-0.6-0.9-0.6-1.9,0-2.8c0.7-1,1.6-1.8,3-1.8c0.8,0,1.3,0.8,1.2,1.6C33.9,16.8,32.8,17.8,31.6,17.5z"/>
	<path d="M36.6,19.1c-1.3-0.1-2.2,0.3-2.8,1.4c-0.2,0.3-0.2,0.7-0.3,1.1c0.1,0.1,0.2,0.2,0.4,0.2c0.4-0.4,0.8-0.8,1.1-1.2
		c0.2-0.3,0.4-0.7,0.6-0.9c0.1-0.1,0.4-0.1,0.6-0.1c0,0.2,0.1,0.5,0,0.6c-0.2,0.4-0.5,0.9-0.8,1.3c0.2,0.2,0.4,0.4,0.7,0.6
		c0,0.1,0,0.2-0.1,0.2c-1,0-2,0.1-3,0.1c-0.2,0-0.4-0.5-0.5-0.9c-0.2-1.5,1.8-3.3,3.2-3c0.3,0.1,0.6,0.2,0.8,0.3
		C36.6,18.9,36.6,19,36.6,19.1z"/>
	<path d="M23.8,21.1c0,1,0.2,1.1,0.9,0.8c0.3-0.1,0.5-0.2,0.9-0.3c-0.4,0.9-1.4,1.3-2.1,1c-0.8-0.3-0.7-0.9-0.7-1.5
		c0.2-1.3,1.2-2.4,2.3-2.4c0.4,0,1,0.2,1.1,0.6c0.2,0.3,0,0.9-0.3,1.2C25.5,21.1,24.7,21.3,23.8,21.1z M24.3,20.4
		c1-0.1,1.1-0.1,1.4-0.9C24.8,19.3,24.5,19.7,24.3,20.4z"/>
	<path d="M61,19.4c-0.2,0.1-0.3,0.3-0.5,0.2c-1.1-0.4-1.3,0.4-1.6,1.1c-0.2,0.5-0.5,1.1-0.8,1.6c-0.1,0.2-0.5,0.3-1,0.3
		c0.2-0.5,0.4-1,0.5-1.5c0.2-0.7,0.4-1.3,0.6-2c0-0.1,0.1-0.3,0.1-0.3c0.8,0,1.6,0.1,2.4,0.2C60.9,18.9,60.9,19.2,61,19.4
		C61,19.4,61,19.4,61,19.4z"/>
	<path d="M21.7,6C21.4,5.6,21,5.4,21,5.1c0-0.2,0.4-0.6,0.7-0.6c0.3,0,0.6,0.4,0.8,0.6C22.3,5.3,22.1,5.6,21.7,6z"/>
	<path d="M42.7,6.1c-0.3,0.1-0.6,0.4-0.9,0.4c-0.3,0-0.5-0.4-0.7-0.7c0.3-0.2,0.6-0.5,0.9-0.5c0.2,0,0.5,0.3,0.8,0.5
		C42.7,5.9,42.7,6,42.7,6.1z"/>
	<path d="M66.9,12.1c-0.3,0.2-0.6,0.5-0.9,0.4c-0.3,0-0.5-0.4-0.8-0.6c0.3-0.2,0.5-0.6,0.8-0.6c0.3,0,0.6,0.3,0.9,0.4
		C66.9,11.9,66.9,12,66.9,12.1z"/>
	<path d="M39.7,6.8c-0.3-0.4-0.5-0.7-0.7-1c0.3-0.2,0.6-0.5,0.8-0.5c0.2,0,0.5,0.4,0.7,0.6C40.3,6.1,40.1,6.4,39.7,6.8z"/>
</g>
</svg>
