<?xml version="1.0" encoding="utf-8"?>
<!-- Generator: Adobe Illustrator 26.3.1, SVG Export Plug-In . SVG Version: 6.00 Build 0)  -->
<svg version="1.1" id="Layer_1" xmlns="http://www.w3.org/2000/svg" xmlns:xlink="http://www.w3.org/1999/xlink" x="0px" y="0px"
	 viewBox="0 0 84 26" style="enable-background:new 0 0 84 26;" xml:space="preserve">
<style type="text/css">
	.st0{fill:#FFFFFF;}
</style>
<g>
	<path class="st0" d="M64.5,13.3c0.1,0,0.1,0,0.2,0c0,1.4,0,2.8,0,4.2c0,2.9,0,2.9,2.9,2.8c0.8,0,1-0.3,0.9-1
		c-0.1-1.4-0.1-2.8-0.1-4.2c0-0.7,0.2-1,0.9-0.9c1,0,2,0,3.1,0c0.7,0,1.1,0.2,1,1c0,0.8,0,1.7,0,2.5c0,2.8,0,2.7,2.7,2.7
		c0.9,0,1.2-0.3,1.1-1.2C77.1,15.7,77,12.3,77,9c0-2.8,0-2.8-2.8-2.7c-0.7,0-1.1,0.2-1,1.1c0.1,0.6,0.1,1.2,0.1,1.8
		c0,2.6,0.5,2.4-2.4,2.4c-3,0-2.5,0.3-2.5-2.5c0-3,0-2.9-3-2.8c-0.7,0-1,0.3-1,1C64.6,9.3,64.5,11.3,64.5,13.3z M47.3,11.4
		c0,0,0.1,0,0.1,0c0,1.5,0.1,3,0,4.4c-0.1,1.7-1.4,2.6-3.1,2.2c-1.1-0.3-1.7-1.1-1.8-2.5c-0.1-2.2-0.1-4.3-0.1-6.5
		c0-3.4,0.6-2.7-2.9-2.8c-0.1,0-0.2,0-0.2,0c-0.2,0.3-0.7,0.5-0.7,0.8c0,2.9,0,5.8,0.1,8.7c0.1,2.5,1.3,3.8,3.7,4.4
		c0.9,0.2,1.8,0.3,2.7,0.3c3.5,0,5.2-1.6,5.4-5.1c0.1-2.3,0.1-4.5,0.1-6.8c0-2.6,0.6-2.3-2.3-2.3c-0.7,0-1,0.2-1,1
		C47.4,8.6,47.3,10,47.3,11.4z M61.7,9.4c0-0.6,0-1.1,0.1-1.6c0.2-0.9-0.2-1.4-1.1-1.5c-1.6-0.1-3.2-0.3-4.8-0.1
		c-1.9,0.3-3,1.7-3.2,3.5c-0.2,1.7,0.7,3,2.5,3.9c0.9,0.4,1.9,0.8,2.7,1.3c0.5,0.3,1.1,1.1,0.9,1.6c-0.1,0.5-0.9,1.3-1.4,1.3
		c-1.2,0.1-2.3-0.3-3.5-0.5c-0.3-0.1-0.6-0.3-1.1-0.6c-0.1,0.8-0.1,1.3-0.2,1.9c-0.2,0.9,0.2,1.2,1,1.4c1.9,0.5,3.8,0.6,5.7,0
		c1.8-0.5,3-1.9,3.2-3.7c0.2-1.9-0.6-3.3-2.4-4.2c-1-0.5-2-0.8-3-1.4c-0.4-0.2-1-0.9-0.9-1.3c0.1-0.5,0.7-0.9,1.2-1.1
		c0.4-0.2,1-0.2,1.4,0C59.9,8.7,60.6,9,61.7,9.4z M35.8,12C35.8,12,35.8,12,35.8,12c0-1.1,0-2.3,0-3.4c0-2.7,0.4-2.3-2.3-2.3
		c-1.5,0-1.5,0-1.5,1.5c0.1,2.7,0.1,5.4,0.1,8.2c0,1.1-0.5,1.8-1.7,1.8c-0.3,0-0.7,0.5-0.7,0.7c0.1,0.6-0.5,1.5,0.5,1.8
		c2.8,0.9,5.5-0.9,5.6-3.9C35.9,15,35.8,13.5,35.8,12z"/>
	<path d="M23.4,4.5c1.2,1.4,0.7,3.1,0.8,4.6c0,0.2-0.6,0.6-0.9,0.6c-1.9,0.1-3.9,0.1-5.8,0c-1.4,0-2.3,0.5-3,1.7
		c-0.7,1.2-1.5,2.3-2.2,3.5c-0.7,1.1-1.6,1.7-3,1.6c-3.1-0.1-6.2,0-9.3,0c0-0.2,0-0.5,0-0.7c3.1,0,6.1,0,9.2-0.1
		c0.6,0,1.5-0.1,1.8-0.5c1.3-1.7,2.4-3.5,3.7-5.3C11,9.2,10,9.7,8.2,12.5c-0.3,0.4-0.5,0.9-0.9,1.2c-0.4,0.4-0.9,0.8-1.4,0.8
		c-2,0.1-3.9,0-5.9-0.1c0-3.3,0-6.7,0-10C7.8,4.5,15.6,4.5,23.4,4.5z"/>
	<path d="M0,17.4c4.6,0,9.1,0,13.7,0c1.3,0,2.2-0.4,2.7-1.6c1-2.3,2.6-3.1,5.1-2.9c2.6,0.2,2.6,0,2.6,2.7c0,1,0,2,0,2.9
		c0.1,1.1-0.1,2.1-0.8,2.9c-7.8,0-15.6,0-23.4,0C0,20.1,0,18.8,0,17.4z"/>
	<path d="M84,20.2c-1,0-2,0.1-3,0.1c-0.6,0-0.9-0.2-0.9-0.9c0-4.1,0-8.1-0.1-12.2c0-0.6,0.2-0.9,0.8-0.9c1.1,0,2.1,0,3.2,0
		C84,10.9,84,15.5,84,20.2z"/>
	<path d="M64.5,13.3c0-2,0-4,0-6c0-0.8,0.2-1,1-1c3-0.1,2.9-0.2,3,2.8c0,2.8-0.5,2.5,2.5,2.5c2.9,0,2.4,0.2,2.4-2.4
		c0-0.6,0-1.2-0.1-1.8c-0.2-0.9,0.2-1,1-1.1C77,6.2,77,6.2,77,9c0,3.4,0.1,6.7,0.2,10.1c0,0.9-0.2,1.2-1.1,1.2c-2.7,0-2.7,0-2.7-2.7
		c0-0.8,0-1.7,0-2.5c0-0.8-0.3-1-1-1c-1,0-2,0-3.1,0c-0.7,0-1,0.3-0.9,0.9c0.1,1.4,0.1,2.8,0.1,4.2c0,0.7-0.2,1-0.9,1
		c-2.9,0.1-2.9,0.1-2.9-2.8c0-1.4,0-2.8,0-4.2C64.7,13.3,64.6,13.3,64.5,13.3z"/>
	<path d="M47.3,11.4c0-1.4,0.1-2.7,0-4.1c0-0.8,0.2-1,1-1c2.9,0,2.3-0.3,2.3,2.3c0,2.3,0,4.5-0.1,6.8c-0.1,3.5-1.9,5.1-5.4,5.1
		c-0.9,0-1.8,0-2.7-0.3c-2.4-0.6-3.5-2-3.7-4.4c-0.1-2.9-0.1-5.8-0.1-8.7c0-0.3,0.4-0.5,0.7-0.8c0,0,0.1,0,0.2,0
		c3.5,0,2.9-0.6,2.9,2.8c0,2.2,0,4.3,0.1,6.5c0.1,1.4,0.7,2.1,1.8,2.5c1.7,0.5,3-0.4,3.1-2.2c0.1-1.5,0-2.9,0-4.4
		C47.4,11.4,47.4,11.4,47.3,11.4z"/>
	<path d="M61.7,9.4c-1-0.3-1.8-0.7-2.6-0.9c-0.5-0.1-1-0.1-1.4,0c-0.5,0.2-1.1,0.7-1.2,1.1c-0.1,0.3,0.4,1,0.9,1.3
		c0.9,0.5,2,0.9,3,1.4c1.8,0.9,2.6,2.3,2.4,4.2c-0.2,1.8-1.4,3.2-3.2,3.7c-1.9,0.5-3.8,0.4-5.7,0c-0.8-0.2-1.2-0.6-1-1.4
		c0.1-0.5,0.1-1.1,0.2-1.9c0.5,0.3,0.8,0.5,1.1,0.6c1.2,0.2,2.3,0.5,3.5,0.5c0.5,0,1.3-0.7,1.4-1.3c0.1-0.4-0.5-1.2-0.9-1.6
		c-0.8-0.6-1.8-0.9-2.7-1.3c-1.8-0.9-2.7-2.2-2.5-3.9c0.2-1.8,1.2-3.2,3.2-3.5c1.6-0.2,3.2,0,4.8,0.1c0.9,0,1.3,0.6,1.1,1.5
		C61.7,8.3,61.7,8.8,61.7,9.4z"/>
	<path d="M35.8,12c0,1.5,0,3,0,4.4c-0.1,2.9-2.7,4.8-5.6,3.9c-1-0.3-0.5-1.2-0.5-1.8c0-0.2,0.4-0.7,0.7-0.7c1.2,0,1.7-0.8,1.7-1.8
		c0-2.7,0-5.4-0.1-8.2c0-1.5,0-1.5,1.5-1.5c2.7,0,2.3-0.3,2.3,2.3C35.8,9.7,35.8,10.9,35.8,12C35.8,12,35.8,12,35.8,12z"/>
</g>
</svg>
