<?xml version="1.0" encoding="utf-8"?>
<!-- Generator: Adobe Illustrator 26.3.1, SVG Export Plug-In . SVG Version: 6.00 Build 0)  -->
<svg version="1.1" id="Layer_1" xmlns="http://www.w3.org/2000/svg" xmlns:xlink="http://www.w3.org/1999/xlink" x="0px" y="0px"
	 viewBox="0 0 84 26" style="enable-background:new 0 0 84 26;" xml:space="preserve">
<g>
	<path d="M43.6,0c1.8,4,3.7,8,5.5,12.1c-1.6,1.1-3.4,1.1-5.2,0.9c-0.4,0-0.8-0.7-1-1.1c-0.9-1.6-1.7-3.3-2.7-5.2
		c-2.3,5.4-4.8,10.4-6.7,15.7c-1.1,2.9-2.6,4.1-5.6,3.6c0-0.5,0-1,0-1.5c1.6-3.2,3.2-6.4,4.7-9.7c2.3-4.9,4.4-9.9,6.6-14.8
		C40.7,0,42.2,0,43.6,0z"/>
	<path d="M56.1,25.9c-3.4,0-6.9,0-10.4,0c1.6-2.3,1.6-2.7,0.6-6.8c1.5-0.9,2.9-1.7,4.5-2.7c1.4,2.7,2.7,5.3,4.1,8
		c0.3,0.5,0.7,0.8,1.1,1.2C56.1,25.7,56.1,25.8,56.1,25.9z"/>
	<path d="M27.9,14.6c1.5-0.8,2.9-1.6,4.4-2.4c-0.4,3-3.1,1.6-4.4,2.8C27.9,14.9,27.9,14.7,27.9,14.6z"/>
	<path d="M51.4,13.9c-3.5,5.1-10.7,5.9-15.1,3.5c0.7-0.4,1.3-1,1.7-1C43.7,17.4,45.6,16.9,51.4,13.9z"/>
	<path d="M50.4,13c-3.8,3-7.9,3.6-12.7,2.2c0.3-0.7,0.5-1.3,0.8-2.1C42.5,14.3,46.5,14.8,50.4,13z"/>
</g>
</svg>
