<?xml version="1.0" encoding="utf-8"?>
<!-- Generator: Adobe Illustrator 26.3.1, SVG Export Plug-In . SVG Version: 6.00 Build 0)  -->
<svg version="1.1" id="Layer_1" xmlns="http://www.w3.org/2000/svg" xmlns:xlink="http://www.w3.org/1999/xlink" x="0px" y="0px"
	 viewBox="0 0 84 26" style="enable-background:new 0 0 84 26;" xml:space="preserve">
<style type="text/css">
	.st0{fill-rule:evenodd;clip-rule:evenodd;}
	.st1{fill-rule:evenodd;clip-rule:evenodd;fill:#F5F7F5;}
	.st2{fill-rule:evenodd;clip-rule:evenodd;fill:#FFFFFF;}
	.st3{fill-rule:evenodd;clip-rule:evenodd;fill:#F9F6F3;}
	.st4{fill-rule:evenodd;clip-rule:evenodd;fill:#ECFAFC;}
	.st5{fill-rule:evenodd;clip-rule:evenodd;fill:#EDFBFA;}
</style>
<g>
	<g>
		<path class="st0" d="M70.3,2.4c0.2,0.3,0.5,0.5,0.9,0.7c0.1,0.1,0.2,0.3,0.1,0.4c0.6,0.1,1.1,0.4,1.5,0.8
			c-0.6,0.9-0.9,1.9-1.1,2.9c-0.1,2.7-0.1,5.4,0.1,8c-0.5,0.4-1,0.8-1.4,1.3c-0.7,0.5-1.4,1.1-2.1,1.7c0.2-2.1,0.4-4.3,0.6-6.5
			c0.4-2.9-0.1-5.7-1.4-8.3c0.4-0.7,0.9-1.2,1.6-1.7C69.5,1.9,69.9,2.1,70.3,2.4z"/>
	</g>
	<g>
		<path class="st1" d="M64.3,8.5C63.6,8.9,63,9,62.2,9c-1.2-0.2-1.9-1-1.9-2.2c0.5-1.6,1.6-2.2,3.2-1.9C65.3,5.8,65.6,7.1,64.3,8.5z
			"/>
	</g>
	<g>
		<path class="st2" d="M8.4,6c1.5-0.2,2.4,0.4,2.8,1.8C11,9,10.3,9.7,9.1,9.8C7.7,9.5,7,8.7,7.3,7.3C7.5,6.7,7.9,6.3,8.4,6z"/>
	</g>
	<g>
		<path class="st0" d="M8.5,6.3c2-0.1,2.6,0.8,2,2.6c-0.6,0.5-1.2,0.7-2,0.5C7.2,8.3,7.2,7.3,8.5,6.3z"/>
	</g>
	<g>
		<path class="st2" d="M8.4,6.8c0.4,0,0.9,0,1.3,0.1c0.4,0.3,0.4,0.7,0,1C10,8.2,10,8.5,9.8,8.8C9.8,8.2,9.4,8,8.8,8.1
			c0,0.2,0,0.5,0,0.7c-0.1,0-0.3,0-0.4,0C8.4,8.2,8.4,7.5,8.4,6.8z"/>
	</g>
	<g>
		<path class="st0" d="M8.8,7.1c0.2,0,0.5,0,0.7,0.1c0.2,0.2,0.2,0.4-0.1,0.6C9.2,7.8,9,7.9,8.8,7.8C8.8,7.6,8.8,7.4,8.8,7.1z"/>
	</g>
	<g>
		<path class="st3" d="M70.4,1.2c1.3,1,2.5,1.9,3.8,2.9c-0.7,1.1-1.2,2.2-1.5,3.4c-0.1,2.7,0,5.4,0.3,8c-0.9,0.8-1.8,1.6-2.7,2.4
			c-0.3-0.5-0.1-0.8,0.6-0.8c-0.3-0.1-0.4-0.3-0.4-0.6c0.4-0.5,0.9-0.9,1.4-1.3c-0.2-2.7-0.2-5.4-0.1-8c0.2-1.1,0.5-2,1.1-2.9
			c-0.4-0.4-0.9-0.7-1.5-0.8c0-0.2,0-0.3-0.1-0.4c-0.4-0.2-0.6-0.4-0.9-0.7c0.1-0.1,0.2-0.3,0.3-0.4c-0.1-0.1-0.3-0.2-0.4-0.4
			c-1.3-0.1-2.2,0.4-2.9,1.5c0.1,0.2,0.1,0.3,0.1,0.5c-0.1,0.3-0.2,0.6-0.3,0.9c0.2,0.4,0.3,0.9,0.3,1.4C67,5,66.6,4.2,66.2,3.3
			c0.6-0.8,1.3-1.5,2-2.1c0.3-0.3,0.7-0.6,1.1-0.9C69.7,0.6,70.1,0.9,70.4,1.2z"/>
	</g>
	<g>
		<path class="st1" d="M70.3,2.4c-0.4-0.3-0.7-0.5-1.2-0.5c-0.7,0.4-1.2,1-1.6,1.7c1.3,2.6,1.8,5.4,1.4,8.3
			c-0.2,2.2-0.4,4.3-0.6,6.5c0.7-0.6,1.4-1.2,2.1-1.7c0,0.3,0.2,0.5,0.4,0.6c-0.6,0-0.8,0.2-0.6,0.8c-0.2,0.3-0.2,0.7-0.1,1
			c0.6-0.5,1.3-1.1,1.9-1.6c-0.1,1.4-0.2,2.9-0.3,4.3c-0.8,0.4-1.6,0.8-2.3,1.4c-0.3,0.4-0.6,0.8-0.7,1.2c-0.3,0.4-0.6,0.9-0.9,1.3
			c-0.7-0.5-1.1-1-1.5-1.7c0.1-1.1,0-2.1-0.3-3.2c0-0.1,0-0.2,0.1-0.3c0.2,0.2,0.2,0.4,0.3,0.6c0-0.3,0.1-0.6,0.1-0.9
			c0.2,0.2,0.4,0.2,0.7,0c0-0.3,0-0.5,0.1-0.7C67,19.3,67,19,67.3,18.6c0.4,0.3,0.9,0.4,1.4,0.6c0-0.2,0-0.5,0-0.7
			c-0.4,0-0.8-0.1-1.2-0.1c0-0.2,0-0.5,0-0.7c-0.3,0-0.5,0-0.6,0.3c-2.8,2.5-5.8,2.8-9.1,1c-0.2,0-0.3,0.1-0.4,0.3
			c-1.8,1-3.8,1.6-6,1.6c-2.4-0.2-3.7-1.5-3.9-3.9c-0.8,0.7-1.6,1.3-2.6,1.7c-1.6,0.4-3.1,0.7-4.7,1.1c-1.4,0.7-2.8,1.5-4,2.4
			c-2.6-1.4-5.3-2.6-8.1-3.6c0.8-0.4,1.6-0.9,2.3-1.3c1.2-0.4,2.3-0.8,3.5-1.1c2.1,0,4.2,0,6.3,0c0.8-0.2,0.9-0.4,0.2-0.8
			c-0.6-0.8-0.9-1.6-0.9-2.6c-0.5,0.9-1.2,1.8-2,2.5c-1.5,0.8-3.1,0.8-4.7,0.1c-0.3-0.2-0.6-0.4-0.8-0.6c-0.7,0.5-1.4,0.8-2.1,1
			c-1.1,0.1-2.2,0.2-3.2,0.3c-0.1,1.7-1,2.7-2.8,3c-0.2,0.3-0.1,0.4,0.3,0.4c0.3,0.3,0.5,0.5,0.7,0.9c0.3,1.4-0.2,2.3-1.5,2.9
			c-1.1,0.2-2-0.1-2.8-0.9c0-0.3-0.1-0.5-0.3-0.7c-0.3,0.8-0.8,1.3-1.6,1.5c-1.8,0.4-2.8-0.3-3.1-2c-0.1-0.6,0.1-1.1,0.6-1.4
			c-1.9-0.5-3.6-1.5-4.9-2.9c-1.9-2.9-1.4-5.4,1.4-7.4c2.2-1.3,4.6-2,7.2-2.1c0.4,0,0.9,0,1.3,0.1c-0.2,0.2-0.4,0.5-0.6,0.7
			c-1,1.1-2.1,2.2-3.3,3.2c-0.2,0.3-0.4,0.6-0.6,0.9c-0.2,0.7,0,1.3,0.5,1.8c0.8,0.3,1.7,0.4,2.6,0.3c0.3-0.1,0.4-0.2,0.6-0.4
			c-0.5-1.1-0.2-1.9,0.9-2.4c0.8-0.3,1.6-0.5,2.5-0.6c1.4,0,2.8-0.1,4.2-0.1c0.3-0.1,0.7-0.2,1-0.3c1.4-1.4,2.8-2.9,4.1-4.5
			c1-0.3,2.1-0.3,3.1,0.1c1.7,1.1,3,2.5,3.8,4.4c0.4-0.8,0.9-1.6,1.4-2.3c0.6-0.7,1.2-1.2,2-1.7c1.7-0.9,3.2-0.6,4.5,0.8
			c1.3,1.9,1.7,4,1.3,6.3c0.8,0.3,1.6,0.8,2.4,1.2c0.8,0.3,1.5,0.3,2.1-0.2c0.3-0.9,0-1.7-0.8-2.2c-0.8-0.5-1.6-1.1-2.3-1.7
			c0.9-1.6,1.8-3.3,2.7-4.9c3.1,1.5,5.4,3.8,6.8,6.9c0.1,0.8,0.6,1.2,1.4,1.3c0.8-0.1,1.1-0.5,0.9-1.3c0-1.1,0-2.3,0-3.4
			c0.8,0,1.5-0.2,2.2-0.6c1-0.3,2-0.6,3-0.9c0.1-0.7,0-1.4-0.2-2c0-0.5-0.1-0.9-0.3-1.4c0.1-0.3,0.2-0.6,0.3-0.9
			c0-0.2-0.1-0.3-0.1-0.5c0.7-1.1,1.7-1.6,2.9-1.5c0.1,0.1,0.3,0.2,0.4,0.4C70.4,2.1,70.3,2.2,70.3,2.4z"/>
	</g>
	<g>
		<path class="st0" d="M33.9,6.5c1.4,0,2.5,0.6,3.4,1.7c0.6,0.7,1.1,1.6,1.5,2.4c0.1,0.7-0.1,1.3-0.4,1.9c-0.4,0.4-0.7,0.9-1,1.4
			c-0.8,0.8-1.7,1.1-2.8,0.8c-1.1-0.2-1.8-0.8-2-1.9c-0.6,0.7-1.3,1.3-2.1,1.7c-1.4,0.3-2.8,0.5-4.2,0.6c-0.2,0.1-0.4,0.3-0.5,0.5
			c0.1,1-0.3,1.8-1.2,2.2c-1.6,0.7-3.3,1-5,0.9C17,19,14.9,18.4,13,16.9c-2.2-2.4-2.1-4.6,0.3-6.7C15,9,16.8,8.5,18.9,8.5
			c-1.4,1-2.5,2.2-3.3,3.7c-0.2,1.5,0.5,2.6,2,3.1c1.1,0.1,2.2,0.1,3.2-0.2c0.3-0.2,0.6-0.5,0.8-0.9c0-0.4,0-0.8-0.2-1.2
			c0-0.3,0.2-0.5,0.4-0.7c1.7-0.3,3.4-0.4,5.1-0.4c1.5,0.1,2.7-0.4,3.7-1.4C31.7,9.1,32.8,7.8,33.9,6.5z"/>
	</g>
	<g>
		<path class="st4" d="M33.9,10.4c0.8-0.1,1.6,0.1,2.2,0.6c-1,0.9-2,0.9-3.1,0.1C33.4,10.9,33.6,10.7,33.9,10.4z"/>
	</g>
	<g>
		<path class="st0" d="M48.8,17.7c0.2,0,0.4,0,0.6,0c-0.1-0.9-0.2-1.8-0.1-2.7c-0.1,0-0.3,0-0.4,0c0,0.8,0,1.6,0,2.4
			c-0.1-0.9-0.2-1.9-0.1-2.9c1,0.3,1.9,0.7,2.8,1.2c1.3,0.5,2.4,0.2,3.4-0.8c0.4-0.8,0.4-1.5,0-2.3C53.9,11.8,53,11,52,10.3
			c0.5-0.9,0.9-1.8,1.4-2.7c0.1-0.2,0.3-0.2,0.4-0.3c2.7,1.3,4.5,3.4,5.3,6.3c1.1,1.3,2.4,1.6,3.9,0.8c0.2-0.1,0.3-0.3,0.4-0.5
			c0.2-1.3,0.3-2.7,0.2-4c1.3-0.4,2.7-0.7,4.1-1c0.2,2,0.2,4-0.2,6c-1.2,2.9-3.4,4.2-6.6,3.9c-1.1-0.2-2.1-0.6-3-1.2
			c-2.1,1.5-4.5,2.1-7.1,1.9C49.6,19.4,49,18.8,48.8,17.7z"/>
	</g>
	<g>
		<path class="st0" d="M62.1,5.8c0.7-0.1,1.3,0.1,1.8,0.6c0.1,1.2-0.4,1.7-1.7,1.5c-0.7-0.3-0.9-0.8-0.7-1.5
			C61.8,6.2,61.9,6,62.1,5.8z"/>
	</g>
	<g>
		<path class="st0" d="M48.8,17.7c0-0.1,0-0.2,0-0.3c0-0.8,0-1.6,0-2.4c0.1,0,0.3,0,0.4,0c0,0.9,0,1.8,0.1,2.7
			C49.2,17.7,49,17.7,48.8,17.7z"/>
	</g>
	<g>
		<path class="st0" d="M31,18.5c0.9-0.2,1.7-0.6,2.3-1.1c0.8-0.2,1.5-0.3,2.3-0.3c1.5,0.1,3,0.1,4.5,0.1c0.6-0.1,1.1-0.3,1.6-0.6
			c0.5-0.5,1-0.9,1.5-1.4c-1.7,0.1-2.5-0.7-2.6-2.3c0.3-2.3,1.4-4.2,3.4-5.5c0.7-0.4,1.4-0.5,2.2-0.1c1.3,1.2,1.9,2.7,1.9,4.5
			c0,2.2-0.8,4-2.5,5.4c-0.6,0.4-1.3,0.7-2,0.9c-2.8,0.2-5.3,1.2-7.4,2.9C34.5,19.9,32.8,19.1,31,18.5z"/>
	</g>
	<g>
		<path class="st5" d="M43.2,10.7c0.8,0,1.6,0,2.3,0.2c0.4,0.5,0.3,0.9-0.3,1.1c-0.7,0.2-1.4,0.2-2,0.1
			C42.3,11.7,42.3,11.2,43.2,10.7z"/>
	</g>
	<g>
		<path class="st0" d="M33.3,17.3c-0.7,0.6-1.5,1-2.3,1.1c-0.3,0-0.3-0.2,0-0.4C31.8,17.8,32.5,17.5,33.3,17.3z"/>
	</g>
	<g>
		<path class="st0" d="M67.3,20.2c0.4-0.4,0.8-0.7,1.3-0.9c0.2,0.4,0.3,0.8,0.3,1.3c0.6-0.1,1.2-0.3,1.7-0.6
			c0.1,0.4,0.1,0.8-0.1,1.1c-1.3,0.6-2.2,1.5-2.9,2.7c-0.4-0.6-0.4-1.2,0-1.8C67.2,21.5,67.1,20.9,67.3,20.2z"/>
	</g>
	<g>
		<path class="st0" d="M22.2,20c1.3-0.2,1.8,0.3,1.5,1.6c-0.2,0.4-0.5,0.6-0.9,0.6c-1.1,0-1.5-0.5-1.2-1.6
			C21.7,20.3,21.9,20.1,22.2,20z"/>
	</g>
	<g>
		<path class="st0" d="M17.3,20c0.6,0,1.2,0.1,1.8,0.4c0.5,1.1,0.1,1.7-1,1.8C16.6,21.9,16.3,21.2,17.3,20z"/>
	</g>
	<path class="st2" d="M67.1,18.8c0,0-1,1.7-1,1.9s0.5,0.6,0.5,0.6l0.3-0.6l0.5-0.6l0.2-0.7L67.1,18.8z"/>
</g>
</svg>
