<?xml version="1.0" encoding="utf-8"?>
<!-- Generator: Adobe Illustrator 26.3.1, SVG Export Plug-In . SVG Version: 6.00 Build 0)  -->
<svg version="1.1" id="Layer_1" xmlns="http://www.w3.org/2000/svg" xmlns:xlink="http://www.w3.org/1999/xlink" x="0px" y="0px"
	 viewBox="0 0 84 26" style="enable-background:new 0 0 84 26;" xml:space="preserve">
<style type="text/css">
	.st0{fill-rule:evenodd;clip-rule:evenodd;}
</style>
<g id="g7">
	<polygon id="polygon9" class="st0" points="69,17.2 71.6,17.2 71.6,7.9 69,7.9 69,17.2 	"/>
	<polygon id="polygon11" class="st0" points="75.5,7.9 75.5,17.2 72.8,17.2 72.8,7.9 75.5,7.9 	"/>
	<polygon id="polygon13" class="st0" points="12.3,11.5 10.2,11.5 10.2,7.9 6.7,7.9 6.7,17.2 10.2,17.2 10.2,12.5 12.3,12.5 
		12.3,17.2 15.8,17.2 15.8,7.9 12.3,7.9 12.3,11.5 	"/>
	<path id="path15" class="st0" d="M28.5,11.3l-0.2-0.6h-2.8v6.5h2.8v-3.9l0,0c0-0.8,0.5-1.3,1-1.3c0.4,0,0.9,0.1,0.9,0.9l0,0v4.3H33
		V13l0,0C33,10.6,30.4,9.7,28.5,11.3L28.5,11.3L28.5,11.3L28.5,11.3z"/>
	<path id="path17" class="st0" d="M57.7,14.4l-1.3-3.7h-1.9l-1.3,3.9l-1.4-3.9H49h0h-1.1L46.6,14l-1.9-3.3h-3.2l3.8,6.5l-0.5,1.2
		l0,0c-0.2,0.4-0.6,0.4-0.7,0c0-0.7-0.5-1.2-1.2-1.2c-0.7,0-1.2,0.5-1.2,1.2c0,0.7,0.7,1.6,2.1,1.5c1.4-0.1,1.9-1.2,2.1-1.7l0,0
		l3.2-7.6l2.3,6.4h2.1l1.3-3.7l1.3,3.7h2l2.2-6.5H59L57.7,14.4L57.7,14.4L57.7,14.4z"/>
	<path id="path19" class="st0" d="M20.7,10.4c-2.2,0-3.9,1.6-3.9,3.6c0,2,1.8,3.6,3.9,3.6c2.2,0,3.9-1.6,3.9-3.6
		C24.6,12,22.8,10.4,20.7,10.4L20.7,10.4L20.7,10.4L20.7,10.4z M21.6,15.7c0,0.5-0.4,1-1,1c-0.5,0-1-0.4-1-1l0,0v-3.4l0,0
		c0-0.5,0.4-1,1-1c0.5,0,1,0.4,1,1l0,0V15.7L21.6,15.7L21.6,15.7z"/>
	<path id="path21" class="st0" d="M41.7,14.5c0-0.2,0-0.4,0-0.5c0-2-1.8-3.6-3.9-3.6c-2.2,0-3.9,1.6-3.9,3.6c0,2,1.8,3.6,3.9,3.6
		c1.5,0,2.8-0.8,3.5-1.9l0,0l-0.9-0.3l0,0c-0.5,0.8-1.5,1.3-2.6,1.3c-0.5,0-1-0.5-1-1.1l0,0v-1.2L41.7,14.5L41.7,14.5L41.7,14.5z
		 M36.8,12.3c0-0.5,0.4-1,1-1c0.5,0,1,0.4,1,1l0,0v1.3h-2V12.3L36.8,12.3L36.8,12.3z"/>
	<path id="path23" class="st0" d="M68,14.5c0-0.2,0-0.4,0-0.5c0-2-1.8-3.6-3.9-3.6c-2.2,0-3.9,1.6-3.9,3.6c0,2,1.8,3.6,3.9,3.6
		c1.5,0,2.8-0.8,3.5-1.9l0,0l-0.9-0.3l0,0c-0.5,0.8-1.5,1.3-2.6,1.3c-0.5,0-1-0.5-1-1.1l0,0v-1.2L68,14.5L68,14.5L68,14.5z
		 M63.1,12.3c0-0.5,0.4-1,1-1c0.5,0,1,0.4,1,1l0,0v1.3h-2V12.3L63.1,12.3L63.1,12.3z"/>
</g>
</svg>
