<?xml version="1.0" encoding="utf-8"?>
<!-- Generator: Adobe Illustrator 26.3.1, SVG Export Plug-In . SVG Version: 6.00 Build 0)  -->
<svg version="1.1" id="Layer_1" xmlns="http://www.w3.org/2000/svg" xmlns:xlink="http://www.w3.org/1999/xlink" x="0px" y="0px"
	 viewBox="0 0 84 26" style="enable-background:new 0 0 84 26;" xml:space="preserve">
<style type="text/css">
	.st0{fill:#FFFFFF;}
</style>
<g>
	<path d="M3.1,21.1c0.5-0.7,1.1-1.4,1.5-2.2c2.6-4.4,5.2-8.8,7.8-13.2c1.6-2.8,4.9-3.9,7.4-2.3c0.7,0.4,1.3,1.1,1.7,1.8
		C25,11.2,28.5,17.4,32,23.5c0.2,0.4,0.6,0.9-0.2,0.9c-2.3,0-4.6-0.1-6.9-0.2c0,0-0.1-0.1-0.2-0.2c0.5-0.1,1-0.2,1.5-0.3
		c-3.1-5.2-14.3-5.2-18.4,0C8.4,23.9,9,23.9,9.6,24c0,0.1,0,0.2,0,0.3c-2.2,0-4.4,0.1-6.5,0.1C3.1,23.3,3.1,22.2,3.1,21.1z
		 M8.8,19.8c0.1,0.1,0.1,0.2,0.2,0.3c5.4-2.1,10.8-2.4,16.3-0.4c-0.1-0.5-0.2-0.9-0.4-1.2c-0.6-1.3-1.2-2.5-1.9-3.8
		c-1.7-3.2-3.3-6.5-5-9.7c-0.7-1.3-1-1.2-1.6,0c-2.1,3.9-4.1,7.8-6.1,11.7C9.7,17.6,9.3,18.7,8.8,19.8z"/>
	<path d="M81,19c-0.8,0.3-1.2-0.1-1.5-0.8c-0.8-2.1-0.8-2.1-3.1-2.1c-0.1,0-0.1,0-0.2,0c-2.6,0-2-0.3-3,2c-0.4,0.9-1.6,1.4-2.5,0.9
		c-0.2-0.1-0.3-0.7-0.2-1c1.2-3,2.4-5.9,3.6-8.9c0.1-0.2,0.2-0.5,0.2-0.7c0.5-1.6,0.7-1.6,2.3-1.6c0.7,0,1.1,0.3,1.3,0.9
		c0.8,2.1,1.6,4.1,2.5,6.1c0.1,0.3,0.4,0.6,0.6,0.9C81,16.2,81,17.6,81,19z M77.9,14.1c-0.7-1.4-0.8-2.7-1.8-3.8
		c-0.5,1.2-0.9,2.1-1.2,3.1c-0.1,0.2,0.2,0.7,0.3,0.7C76,14.2,76.8,14.1,77.9,14.1z"/>
	<path d="M34.8,12.9c0-1.7,0-3.4,0-5.1c0-0.7,0.3-1,1-1c1.6,0,3.2,0,4.8,0c2.7,0,4.1,1,4.8,3.6c0.5,1.8,0.5,3.7-0.2,5.5
		C44.5,18,43.2,19,41,19.1c-1.7,0-3.4,0-5.2,0c-0.8,0-1.1-0.3-1-1.1C34.8,16.3,34.8,14.6,34.8,12.9z M37.1,12.9c0,0.4,0,0.8,0,1.2
		c0.1,3.2-0.6,2.8,3,2.8c1.5,0,2.3-0.7,2.6-2.2c0.2-0.8,0.2-1.6,0.2-2.4c-0.2-2.6-1-3.3-3.7-3.3c-0.3,0-0.6,0-0.8,0
		c-0.9-0.1-1.3,0.3-1.2,1.2C37.2,11.1,37.1,12,37.1,12.9z"/>
	<path d="M52.6,12c0.8,0,1.6,0,2.4,0c0.7,0,1,0.2,1,1c0,0.8-0.3,1.1-1.1,1.1c-1.6,0-3.2,0-4.7,0c-1,0-1.1,0.2-0.8,1.2
		c0.4,1.1,1.2,1.7,2.4,1.7c1.1,0,2.1,0,3.2,0c0.8,0,1,0.4,1,1.1c0,0.7-0.2,1.1-1,1.1c-1.2,0-2.5,0-3.7,0c-2.3-0.1-4.1-1.3-4.6-3.6
		c-0.4-2-0.5-4,0.4-6C47.8,7.9,49,7,50.7,6.9c1.5-0.1,3,0,4.5,0C56,6.8,56,7.4,56,8c0,0.6-0.1,1-0.9,1c-1.1,0-2.1,0-3.2,0
		c-1.4,0-2.2,0.7-2.6,2c-0.2,0.6-0.1,1,0.7,1C50.9,12,51.8,12,52.6,12z"/>
	<path d="M66.8,6.8c1.4,0,2.9,0,4.3,0c0.8,0,1,0.4,1,1.1c0,0.7-0.2,1.1-1,1c-0.7,0-1.3,0-2,0c-0.8-0.1-1,0.3-1,1.1
		c0,2.6,0,5.2,0,7.8c0,0.9-0.3,1.3-1.3,1.3c-0.9,0-1.3-0.3-1.3-1.3c0-2.6,0-5.2,0-7.8c0-0.8-0.2-1.2-1.1-1.1c-0.7,0-1.3,0-2,0
		c-0.8,0-1-0.4-1-1.1c0-0.7,0.2-1,1-1C64,6.9,65.4,6.8,66.8,6.8z"/>
	<path d="M56.9,11.5c0-1.3,0-2.5,0-3.8c0-1,0.6-0.9,1.3-0.9c0.7,0,1.3-0.1,1.3,0.9c0,2.1,0,4.3,0,6.4c0,1.9,0.8,2.7,2.7,2.7
		c0.6,0,1.2,0,1.8,0c0.8-0.1,1.1,0.4,1.1,1.1c0,0.7-0.3,1.1-1,1.1c-1.1,0-2.1,0-3.2,0C58.4,19,57,17.5,56.9,15
		C56.9,13.9,56.9,12.7,56.9,11.5C56.9,11.5,56.9,11.5,56.9,11.5z"/>
	<path class="st0" d="M77.9,14.1c-1.1,0-1.9,0-2.7,0c-0.1,0-0.4-0.5-0.3-0.7c0.3-1,0.7-1.9,1.2-3.1C77.1,11.4,77.2,12.7,77.9,14.1z"
		/>
	<path class="st0" d="M37.1,12.9c0-0.9,0-1.8,0-2.7c-0.1-0.9,0.3-1.3,1.2-1.2c0.3,0,0.6,0,0.8,0c2.6,0,3.5,0.7,3.7,3.3
		c0.1,0.8,0,1.6-0.2,2.4c-0.3,1.5-1.1,2.1-2.6,2.2c-3.5,0-2.9,0.4-3-2.8C37.1,13.7,37.1,13.3,37.1,12.9z"/>
	<path d="M3.1,21.1c0,0-2.8,3.4,0,3.4S3.1,21.1,3.1,21.1z"/>
	<path d="M81,14.8c0,0,2.8,4.9-0.9,4.2L81,14.8z"/>
</g>
</svg>
