<?xml version="1.0" encoding="utf-8"?>
<!-- Generator: Adobe Illustrator 26.3.1, SVG Export Plug-In . SVG Version: 6.00 Build 0)  -->
<svg version="1.1" id="Layer_1" xmlns="http://www.w3.org/2000/svg" xmlns:xlink="http://www.w3.org/1999/xlink" x="0px" y="0px"
	 viewBox="0 0 84 26" style="enable-background:new 0 0 84 26;" xml:space="preserve">
<style type="text/css">
	.st0{fill-rule:evenodd;clip-rule:evenodd;fill:#1D1D1B;}
</style>
<g>
	<path class="st0" d="M13.5,2.8H2.6v3.5h5.9L2.2,19.2v4h11.3v-3.6H7.1l6.4-13.3L13.5,2.8L13.5,2.8z M21.7,19.5l0.5,3.8h4.5L22.9,2.8
		h-5.6l0,0c-1.3,6.8-2.5,13.6-3.8,20.4l0,0h4.5l0.5-3.8H21.7L21.7,19.5z M18.9,16l1.2-8.2l1.2,8.2H18.9L18.9,16z M38.9,2.8l0,20.4
		h-5L31,12.1v11.1l-4.3,0l0-20.4h4.8l3.2,11.4l0-11.4H38.9L38.9,2.8z M50,22.2c0.2-0.2,0.3-0.3,0.5-0.5c0.1-0.2,0.3-0.4,0.4-0.6
		c0.1-0.2,0.2-0.4,0.2-0.7c0.1-0.7,0.2-1.4,0.3-2.1l0,0l0-0.6V2.8h-4.4l0,14.9l0,0c0,0.3,0,0.7-0.1,1c0,0.1,0,0.2,0,0.3
		c0,0.1,0,0.2-0.1,0.3c-0.1,0.2-0.1,0.4-0.3,0.5c-0.1,0.1-0.4,0.2-0.5,0.3c-0.2,0-0.4,0-0.7,0c-0.1,0-0.2-0.1-0.3-0.1
		c-0.1-0.1-0.2-0.1-0.3-0.2c-0.1-0.2-0.2-0.3-0.3-0.5c0-0.1,0-0.2-0.1-0.3c0-0.1,0-0.3-0.1-0.5c0-0.2,0-0.4,0-3c0-2.6,0-7.6,0-12.5
		l0,0h-4.4l0,14.9l0,0c0,1.1,0,2.1,0.5,3.3c0.2,0.4,0.4,0.7,0.7,1c0.2,0.2,0.4,0.3,0.6,0.5c0.2,0.2,0.4,0.3,0.7,0.4
		c0.2,0.1,0.5,0.2,0.9,0.3c0.4,0.1,1,0.2,1.5,0.3c0.6,0.1,1.1,0.1,1.7,0c0.6-0.1,1.1-0.2,1.5-0.3c0.4-0.1,0.6-0.2,0.8-0.3
		c0.2-0.1,0.4-0.2,0.6-0.3C49.6,22.5,49.8,22.4,50,22.2L50,22.2z M53.5,3.6c-0.2,0.1-0.4,0.3-0.5,0.5c-0.2,0.2-0.3,0.4-0.5,0.7
		c-0.1,0.2-0.2,0.5-0.3,0.8c-0.3,0.8-0.4,1.7-0.3,2.5c0,0.6,0.2,1.1,0.4,1.7c0.1,0.3,0.2,0.5,0.4,0.8c0.2,0.3,0.4,0.6,0.6,0.9
		c0.4,0.6,0.9,1.1,1.5,1.6c0.3,0.3,0.6,0.5,0.9,0.8c0.3,0.3,0.6,0.5,0.9,0.8c0.3,0.2,0.6,0.5,0.8,0.7c0.3,0.2,0.5,0.5,0.8,0.8
		c0.1,0.1,0.1,0.2,0.2,0.3c0.1,0.1,0.1,0.2,0.2,0.3c0.1,0.2,0.2,0.4,0.3,0.6c0.1,0.2,0.1,0.5,0.2,0.7c0,0.3,0,0.5,0,0.7
		c0,0.2-0.1,0.3-0.1,0.5c-0.1,0.1-0.1,0.2-0.2,0.4c-0.1,0.1-0.2,0.2-0.4,0.3c-0.3,0.1-0.7,0.2-1,0.1c-0.2,0-0.3-0.1-0.5-0.2
		c-0.1-0.1-0.2-0.1-0.3-0.2c-0.1-0.1-0.1-0.2-0.2-0.3c-0.2-0.4-0.2-0.9-0.3-1.4l0,0v-1.9h-4.5l0,0c0,0.6,0,1.3,0,1.9
		c0,0.1,0,0.2,0,0.4c0,0.4,0,0.9,0.1,1.3c0.1,0.2,0.1,0.5,0.2,0.7c0.1,0.2,0.2,0.4,0.3,0.6c0.1,0.2,0.2,0.4,0.4,0.5
		c0.1,0.2,0.3,0.3,0.4,0.5c0.2,0.2,0.5,0.4,0.7,0.5c0.7,0.5,1.6,0.7,2.4,0.8c1.1,0.2,2.1,0.2,3.2,0c0.3,0,0.5-0.1,0.8-0.2
		c0.2-0.1,0.4-0.1,0.6-0.2c0.2-0.1,0.4-0.2,0.5-0.3c0.2-0.1,0.3-0.2,0.6-0.4c0.2-0.2,0.5-0.5,0.8-0.8c0.2-0.3,0.4-0.7,0.6-1.1
		c0.1-0.4,0.2-0.8,0.2-1.2c0-0.5,0.1-0.9,0-1.4c0-0.2,0-0.5-0.1-0.7c-0.1-0.4-0.1-0.7-0.3-1.1c-0.1-0.2-0.1-0.3-0.2-0.6
		c-0.2-0.4-0.5-1-0.9-1.5c-0.2-0.2-0.4-0.5-0.7-0.8c-0.3-0.3-0.7-0.7-1.1-1.1c-0.8-0.7-1.5-1.4-2.3-2.1c-0.4-0.4-0.8-0.8-1.1-1.2
		c-0.1-0.1-0.2-0.2-0.3-0.4c-0.2-0.3-0.3-0.7-0.3-1.1c0-0.2,0-0.4,0-0.5c0-0.2,0.1-0.3,0.1-0.4c0.1-0.1,0.1-0.2,0.2-0.3
		c0.1-0.1,0.2-0.2,0.3-0.2c0.4-0.2,0.8-0.2,1.2-0.1c0.1,0,0.3,0.1,0.4,0.2c0.2,0.2,0.4,0.4,0.5,0.7c0.1,0.3,0.1,0.6,0.1,0.9l0,0v1.6
		h4.2l0,0c0-0.3,0-0.7,0-1c0-0.3,0-0.7,0-0.9c0-0.5-0.1-0.9-0.2-1.3c-0.1-0.4-0.2-0.8-0.5-1.3c-0.1-0.2-0.3-0.4-0.4-0.6
		c-0.3-0.3-0.6-0.6-0.9-0.8c-0.1-0.1-0.3-0.2-0.5-0.3C60.5,3.1,60.4,3,60,2.9c-0.4-0.1-1-0.3-1.6-0.4c-0.6-0.1-1.2-0.1-1.8,0
		C56,2.5,55.4,2.7,55,2.8c-0.4,0.1-0.5,0.2-0.7,0.3c-0.1,0.1-0.3,0.2-0.4,0.2C53.8,3.4,53.6,3.5,53.5,3.6L53.5,3.6z M63.9,17.7
		c0,0.7,0,1.4,0.2,2.1c0.1,0.2,0.1,0.5,0.2,0.7c0.1,0.2,0.2,0.4,0.3,0.6c0.1,0.2,0.2,0.4,0.4,0.5c0.1,0.2,0.3,0.3,0.4,0.5
		c0.2,0.2,0.5,0.4,0.7,0.5c0.7,0.5,1.6,0.7,2.4,0.8c1.1,0.2,2.1,0.2,3.2,0c0.3,0,0.5-0.1,0.8-0.2c0.2-0.1,0.4-0.1,0.6-0.2
		c0.2-0.1,0.4-0.2,0.5-0.3c0.2-0.1,0.3-0.2,0.6-0.4c0.2-0.2,0.5-0.5,0.8-0.8c0.2-0.3,0.4-0.7,0.6-1.1c0.1-0.4,0.2-0.8,0.2-1.1
		c0-0.3,0-0.6,0-0.8c0-0.2,0-0.5,0-0.7c0-0.2,0-0.5-0.1-0.7c-0.1-0.4-0.1-0.7-0.3-1.1c-0.1-0.2-0.1-0.3-0.2-0.6
		c-0.2-0.4-0.5-1-0.9-1.5c-0.2-0.2-0.4-0.5-0.7-0.8c-0.3-0.3-0.7-0.7-1.1-1.1c-0.8-0.7-1.5-1.4-2.3-2.1c-0.5-0.5-1-1-1.4-1.5
		c-0.3-0.5-0.4-1.1-0.3-1.7c0-0.1,0.1-0.2,0.1-0.3c0.1-0.1,0.1-0.2,0.2-0.3c0.1-0.1,0.2-0.2,0.3-0.2c0.4-0.2,0.8-0.2,1.2-0.1
		c0.1,0,0.3,0.1,0.4,0.2C70.8,6.3,71,6.6,71,6.8c0.1,0.3,0.1,0.6,0.1,0.9l0,0v1.6h4.2l0,0c0-0.3,0-0.7,0-1c0-0.3,0-0.7,0-0.9
		c0-0.5-0.1-0.9-0.2-1.3c-0.1-0.4-0.2-0.8-0.5-1.3c-0.1-0.2-0.3-0.4-0.4-0.6c-0.3-0.3-0.6-0.6-0.9-0.8c-0.1-0.1-0.3-0.2-0.5-0.3
		S72.6,3,72.2,2.9c-0.4-0.1-1-0.3-1.6-0.4c-0.6-0.1-1.2-0.1-1.8,0c-0.6,0.1-1.2,0.2-1.6,0.3c-0.4,0.1-0.5,0.2-0.7,0.3
		c-0.1,0.1-0.3,0.2-0.4,0.2c-0.1,0.1-0.3,0.2-0.4,0.3c-0.2,0.1-0.4,0.3-0.5,0.5c-0.2,0.2-0.3,0.4-0.5,0.7c-0.1,0.2-0.2,0.5-0.3,0.8
		C64.1,6.4,64,7.3,64,8.1c0,0.6,0.2,1.1,0.4,1.7c0.1,0.3,0.2,0.5,0.4,0.8c0.2,0.3,0.4,0.6,0.6,0.9c0.4,0.6,0.9,1.1,1.5,1.6
		c0.3,0.3,0.6,0.5,0.9,0.8c0.3,0.3,0.6,0.5,0.9,0.8c0.3,0.2,0.6,0.5,0.8,0.7c0.3,0.2,0.5,0.5,0.7,0.7c0.2,0.2,0.2,0.3,0.3,0.4
		c0.1,0.1,0.1,0.2,0.2,0.3c0.1,0.2,0.2,0.4,0.3,0.6c0.1,0.2,0.1,0.5,0.2,0.7c0,0.3,0,0.5,0,0.7c0,0.2-0.1,0.3-0.1,0.5
		c-0.1,0.1-0.1,0.2-0.2,0.4c-0.1,0.1-0.2,0.2-0.3,0.3c-0.3,0.2-0.7,0.2-1,0.1c-0.2,0-0.3-0.1-0.5-0.2c-0.1-0.1-0.2-0.1-0.3-0.2
		c-0.1-0.1-0.1-0.2-0.2-0.3c-0.2-0.4-0.2-0.9-0.3-1.4l0,0v-1.9h-4.5V17.7L63.9,17.7z M80.5,2.8h-4.4v20.4h4.4V2.8L80.5,2.8z"/>
</g>
</svg>
