<?xml version="1.0" encoding="utf-8"?>
<!-- Generator: Adobe Illustrator 26.3.1, SVG Export Plug-In . SVG Version: 6.00 Build 0)  -->
<svg version="1.1" id="Layer_1" xmlns="http://www.w3.org/2000/svg" xmlns:xlink="http://www.w3.org/1999/xlink" x="0px" y="0px"
	 viewBox="0 0 84 26" style="enable-background:new 0 0 84 26;" xml:space="preserve">
<style type="text/css">
	.st0{fill:#FFFFFF;}
</style>
<g>
	<path d="M14.4,0.5c1.4,0.9,1.6,1.5,0.8,3c-0.4,0.8-0.9,1.5-1.4,2.3C14.9,5.2,16,4.5,17.1,4c1.6-0.7,3.3-1.2,5.1-0.7
		c2.6,0.6,4,3.2,3.2,5.8c-0.6,1.9-2,3.3-3.6,4.5c-1.1,0.9-2.3,1.7-3.4,2.6c-2.5,2-4.4,4.4-5.5,7.7c-0.3-1.7-0.1-3.1,0.4-4.4
		c1-2.6,3-4.4,5.1-6.1c0.9-0.7,1.8-1.4,2.6-2.1c1-0.9,1.9-1.9,1.5-3.4c-0.3-1.2-1.9-2.2-3.5-2.3c-1.8-0.1-3.4,0.6-4.9,1.5
		c-0.8,0.5-1.5,1-2.4,1.5c0.2-1,0.5-1.9,0.6-2.8c0.3-1.6-0.7-2.6-2.3-2c-1,0.4-1.9,1.1-2.7,1.6c0.2-1.5,2.2-3.4,5.4-4.8
		C13.3,0.5,13.8,0.5,14.4,0.5z"/>
	<path d="M6.6,10c0.2-0.5,0.2-1.1,0.5-1.6C7.5,7.8,8,7.1,8.6,6.6c1.1-0.8,2.2-0.3,2.3,1.1c0.1,0.9,0,1.8,0,2.9
		c0.3-0.3,0.6-0.5,0.8-0.7c1.7-1.6,3.7-2.4,6-2.5c0.5,0,1.3,0.3,1.6,0.7c0.2,0.4,0.1,1.3-0.2,1.7c-0.6,0.8-1.4,1.4-2.2,2
		c-1,1-2.2,1.8-3.1,2.9c-0.9,1-1.4,2.3-2.2,3.6c-2.4-1.4-4-3.6-4.7-6.4c-0.1-0.3-0.2-0.6-0.2-0.8C6.6,10.7,6.6,10.3,6.6,10z"/>
	<path d="M74.1,25.5c-2.9-1.1-5.7-2.4-8.6-3.3c-8.8-2.8-17.9-3.8-27.1-3.2c-5.4,0.3-10.8,1.4-16.1,2.9c1.6-1.1,11.7-3.2,16.7-3.6
		c5.8-0.4,11.5-0.3,17.2,0.5c5.7,0.8,11.2,2.3,16.7,4.4c-0.4-3.5-0.7-6.8-1.1-10.2c1.7,0.5,1.7,0.5,1.9,2.3c0.3,2.7,0.5,5.4,0.8,8.1
		c0,0.2,0.1,0.4,0.2,0.7c0,0.3-0.1,0.6,0,0.9C74.9,25.6,74.4,25.5,74.1,25.5z"/>
	<path d="M25.3,2c2.9,0,5.6-0.1,8.3,0C44,2.3,54.2,4,64.1,7.5c1.7,0.6,3.4,1.3,5.1,2.1c0.3,0.1,0.7,0.5,0.7,0.8
		c0.4,3.4,0.7,6.8,1,10.3c0,0.1,0,0.2-0.1,0.3c-3-0.7-6-1.5-9-2.1c-7.9-1.6-15.9-2.4-24-1.7c-8.1,0.7-15.8,3-23.1,6.7
		c-0.1,0.1-0.3,0.1-0.6,0.3c0.9-2.7,2.1-4.8,4.2-6.4c0.7-0.6,1.5-1,2.3-1.5c2.3-1.3,4.1-3.1,5.7-5.1c0.5-0.6,0.9-1.4,1.3-2.1
		c1-2.3,0.6-4.2-1.3-5.9C26.3,2.7,25.9,2.5,25.3,2z M45.8,12c-0.5,0.2-1,0.3-1.3,0.6c-0.3,0.3-0.7,0.9-0.7,1.3
		c0,0.3,0.7,0.7,1.1,0.8c1.4,0.3,2.4-0.4,3.2-1.5c0.2-0.3,0.5-0.7,0.8-0.9c0.6-0.4,1.3-0.6,1.7-0.8c0.9,0.4,1.7,0.9,2.4,1
		c0.8,0.1,1.7-0.2,2.6-0.3c0.3,0.8,0.8,0.7,1.4,0.2c0.3-0.2,0.5-0.5,0.8-0.7c0.6-0.5,1.1-1.1,1.7-1.6c-0.1,0.6-0.3,0.9-0.5,1.4
		c-0.3,0.6-1,1.3-0.3,1.8c0.7,0.6,1.2-0.4,1.7-0.8c0.8-0.6,1.5-1.3,2.2-2c-0.1,0.4-0.3,0.7-0.5,1c-0.2,0.3-0.4,0.7-0.5,1.1
		c-0.4,1.1,0.3,1.9,1.4,1.5c0.8-0.3,1.6-0.8,2.3-1.4c0.3-0.2,0.3-0.6,0.5-1c-0.3,0.1-0.7,0.2-1,0.3c-0.7,0.4-1.3,0.8-1.9,1.2
		c-0.1-0.1-0.2-0.3-0.3-0.4c0.8-0.7,1.5-1.4,2.3-2.1c0.4-0.4,0.8-0.7,0.3-1.3c-0.5-0.5-1.1-0.9-1.8-0.3c-0.5,0.4-1,0.8-1.5,1.3
		c0-0.4,0.2-0.6,0.4-0.8c0.5-0.7,0.3-1.3-0.6-1.3c-0.4,0-0.9,0.2-1.3,0.4c-0.4,0.2-0.7,0.5-0.9,0.6c-0.1-0.5-0.1-1.1-0.4-1.3
		c-0.7-0.4-1.2-0.1-1.7,0.6c-0.5,0.9-1.2,1.8-1.9,2.5c-0.4,0.4-1.1,0.6-1.7,0.7c-1,0.1-1.2-0.3-1-1.3c0.4,0.1,0.8,0.2,1.1,0.3
		c1,0.2,2-0.4,2.6-1.3c0.3-0.6,0.4-1.2,0-1.8c-0.5-0.6-1.7-0.8-2.8-0.4c-1.1,0.5-2,1.2-2.6,2.3c-0.3,0.6-0.6,1.1-1.3,1.1
		c0.4-0.8,0.7-1.5,1-2.2c0.3-0.7,0-1.2-0.6-1.5c-0.6-0.3-0.9,0.2-1.1,0.7c-0.5,1.1-1.1,2.1-1.7,3.1c-0.2,0.3-0.6,0.3-1,0.5
		c0-0.3,0-0.7,0.1-1C47,9.6,47.5,9,47.9,8.4c0.5-0.7,0-1.2-0.5-1.5c-0.2-0.1-0.9,0.1-1.1,0.3c-0.7,1-1.4,2.1-2,3.2
		c-0.2,0.3-0.4,0.6-0.6,0.8c0.1-0.8,0.4-1.4,0.5-2c0.1-0.3-0.2-0.8-0.4-0.9c-0.3-0.1-0.9,0-1.1,0.2c-0.3,0.3-0.4,0.9-0.6,1.3
		c-0.1,0.3-0.1,0.7-0.3,0.9c-0.3,0.3-0.7,0.4-1,0.6c-0.1-0.3-0.5-0.8-0.4-1c0.3-0.7,0.6-1.5,1.2-1.9c0.9-0.6,2.1-0.8,3.1-1.1
		c0,0-0.1-0.2-0.2-0.3c-1.3-0.8-4.3-0.3-5.2,1c-0.8,1.1-0.9,2.8-0.2,3.6c0.7,0.8,1.5,0.7,3-0.2c1,1,1.2,1,2.8,0.1
		C45.3,11.6,45.5,11.8,45.8,12z M31.5,7.5c-0.1-1.2,0.6-2.4,1.7-2.7C34.3,4.6,35.4,5,35.9,6c1.1,2.3,0,5.7-2.2,7
		c-0.3,0.1-0.5,0.3-1,0.7c0.6,0.1,0.9,0.4,1.2,0.3c0.8-0.3,1.6-0.5,2.2-1c1.4-1.2,2.2-2.9,2.4-4.7c0.3-2.4-0.9-4.1-3-4.5
		c-2.3-0.4-4.8,1-5.7,3.2c-0.2,0.5-0.2,1.2,0,1.5c0.2,0.3,0.9,0.2,1.3,0.2c0,1,0,2.2,0,3.4c0,0.3,0.3,0.7,0.5,1
		c0.3-0.3,0.7-0.5,0.8-0.9c0.6-1.6,1.3-3.2,1.8-4.8c0.1-0.3,0-0.8-0.2-1c-0.9-0.9-2.1-1-2.4,0.5C31.7,7.1,31.6,7.3,31.5,7.5z
		 M51.8,16.6c1,0.5,1.6,0.2,1.9-0.6c0.3,0.1,0.6,0.2,0.7,0.1c0.7-0.4,1.4-0.1,2.1,0c1.2,0.1,1.4-0.1,1.4-1.3c0-0.2-0.2-0.4-0.4-0.6
		c-0.2,0.2-0.4,0.4-0.6,0.6c-0.2,0.3-1.3,0.7-1.5,0.4c-0.6-0.8-1.6-1.3-2.5-0.8c-0.3,0.1-0.6,0.8-0.5,1
		C52.9,16.1,52.7,16.5,51.8,16.6z M61.1,16.6c-0.5,0.6-0.5,1.1,0.2,1.3c0.6,0.2,1.3,0.4,1.9,0.4c0.3,0,0.8-0.5,0.8-0.6
		c-0.2-0.7-0.3-1.6-1.2-2c-0.1,0.1-0.2,0.1-0.3,0.2c0.3,0.6,0.5,1.2,0.8,1.8C62.3,17.8,61.5,17.7,61.1,16.6z M59.7,16.9
		c1.8-0.4,0.8-2,1.3-3c-0.4-0.1-0.7-0.2-1.1-0.3C59.8,14.7,59.7,15.8,59.7,16.9z"/>
	<path d="M56,8.3c-0.5,1.2-1.3,1.6-2.7,1.3C53.6,8.3,54.9,7.8,56,8.3z"/>
	<path d="M46.4,12.9c-0.3,0.3-0.6,0.7-0.9,1c-0.1,0.1-0.4,0-0.6,0c0-0.2,0-0.5,0.1-0.6c0.4-0.3,0.8-0.5,1.2-0.7
		C46.3,12.7,46.3,12.8,46.4,12.9z"/>
	<circle class="st0" cx="57.2" cy="16.9" r="0.4"/>
	<circle class="st0" cx="56" cy="16.7" r="0.4"/>
	<ellipse transform="matrix(0.7713 -0.6365 0.6365 0.7713 2.6668 37.8398)" cx="54" cy="15.2" rx="0.5" ry="0.5"/>
</g>
</svg>
