<?xml version="1.0" encoding="utf-8"?>
<!-- Generator: Adobe Illustrator 26.3.1, SVG Export Plug-In . SVG Version: 6.00 Build 0)  -->
<svg version="1.1" id="Layer_1" xmlns="http://www.w3.org/2000/svg" xmlns:xlink="http://www.w3.org/1999/xlink" x="0px" y="0px"
	 viewBox="0 0 84 26" style="enable-background:new 0 0 84 26;" xml:space="preserve">
<style type="text/css">
	.st0{fill:#FFFFFF;}
</style>
<g>
	<path d="M35.3,3.6V1.4h-3.5c0,0-2,0.9-2,2.5s0,2.4,0,2.4h-1.6v2.1h1.7l0,5.5h2.8l0-5.5h2.1l0-2.1l-2,0C32.7,6.4,32,3.2,35.3,3.6z"
		/>
	<rect x="29.8" y="16.2" width="2.7" height="3.4"/>
	<path d="M39,14h-2.5V6.9V6.3h2.1H39v1.1h0.6c0,0,2.3-2.6,6,0.1c0,0,2.9,3.7,2.2,6.5h-2.6c0,0-0.4-5.3-3-5.6C39.7,8,39,14,39,14z"/>
	<path d="M47.3,15.6h-2.7c0,0-0.9,2.2-2.7,2.2s-2.4-2.2-2.4-2.2h-3v8.8H39l0.1-5.6c0,0,3.5,2.5,6,0S47.3,15.6,47.3,15.6z"/>
	<path d="M49.5,14c0,0-0.2-7.2,6.1-7.8s6,7.8,6,7.8H49.5z"/>
	<path class="st0" d="M58.3,11.8c0,0,0.1-3.3-2.7-3.3c-2.8,0-3.3,3.3-3.3,3.3H58.3z"/>
	<path d="M52.8,15.6c0,0,0.6,2.2,2.7,2.2c2.2,0,2.7-2.2,2.7-2.2h3.3c0,0,0.3,5-6,5s-6-5-6-5H52.8z"/>
</g>
</svg>
