<?xml version="1.0" encoding="utf-8"?>
<!-- Generator: Adobe Illustrator 26.3.1, SVG Export Plug-In . SVG Version: 6.00 Build 0)  -->
<svg version="1.1" id="Layer_1" xmlns="http://www.w3.org/2000/svg" xmlns:xlink="http://www.w3.org/1999/xlink" x="0px" y="0px"
	 viewBox="0 0 84 26" style="enable-background:new 0 0 84 26;" xml:space="preserve">
<g>
	<g>
		<path d="M36.6,4.5c1.9,0.7,3.6,0.3,5-1.2c0.6,0.8,1.4,1.2,2.3,1.4c0.9,0.2,1.8,0.2,2.7-0.2C47.2,5.8,48.3,6,49.6,6
			c-0.4,0.7-0.8,1.5-1.2,2.2c0,0.1-0.2,0.1-0.3,0.1c-1-0.4-2.1-0.5-3.2-0.5c-1.5-0.1-2.9-0.2-4.4-0.1c-1.7,0-3.5,0.1-5.2,0.5
			c-0.2,0.1-0.4,0.1-0.6,0.2c-0.4-0.8-0.9-1.5-1.3-2.3C34.5,6.1,35.8,5.8,36.6,4.5z M37.7,6.5c0.1,0,0.2-0.1,0.2-0.1
			c-0.1-0.2-0.2-0.4-0.3-0.6c0,0-0.1,0-0.1,0c0,0.1-0.1,0.2-0.1,0.3C37.3,6,37.3,6,37.2,5.9c0.1-0.1,0.2-0.1,0.3-0.2
			c-0.7-0.4-0.8-0.3-1,0.3c0.1,0.1,0.3,0.2,0.4,0c0,0.1,0,0.2,0,0.3c-0.1-0.1-0.2-0.1-0.3-0.2c0,0-0.1,0.1-0.1,0.1
			c0.2,0.2,0.3,0.4,0.5,0.6c0,0.3,0.3,0.2,0.4,0.3c0-0.1,0.1-0.1,0.1-0.2c0.1,0,0.2,0,0.2,0C37.8,6.8,38.1,6.6,37.7,6.5z M46.1,5.5
			c-0.2,0-0.4,0-0.6,0c0,0.1,0,0.1,0,0.2c0.1,0.1,0.2,0.2,0.3,0.3c0,0-0.1,0.1-0.1,0.1c0-0.1-0.1-0.2-0.2-0.4
			c-0.1,0.3-0.2,0.5-0.3,0.7c0,0,0.1,0.1,0.1,0.2c-0.4,0.2,0,0.3,0,0.5c0,0,0.1,0,0.2,0c0,0.1,0.1,0.1,0.1,0.2
			c0.2-0.1,0.5,0,0.5-0.3c0.3-0.1,0.3-0.4,0.4-0.7c0,0-0.1,0-0.1-0.1c-0.1,0.1-0.2,0.2-0.4,0.3c0-0.1,0-0.3,0-0.4
			c0.1,0.2,0.3,0.1,0.5,0C46.4,5.8,46.3,5.7,46.1,5.5z M41,5.5c0.4,0,0.5-0.1,0.4-0.7C41,5,40.9,5.2,41,5.5c-0.1,0-0.2,0.1-0.2,0.1
			c0,0.3,0,0.5,0,0.8C41.3,6.1,41.3,5.8,41,5.5z M42,5.9c-0.2-0.2-0.3-0.3-0.5-0.5c-0.1,0.2-0.3,0.3-0.3,0.5c0,0.2,0.2,0.3,0.3,0.5
			C41.7,6.2,41.8,6.1,42,5.9z M43.8,5.5c-0.2,0.3-0.4,0.4-0.4,0.6c0,0.1,0.2,0.4,0.3,0.4c0.2,0,0.4-0.2,0.4-0.4
			C44.2,5.9,44,5.7,43.8,5.5z M39.9,6c-0.3-0.2-0.4-0.4-0.6-0.4c-0.1,0-0.3,0.2-0.4,0.4c0.1,0.1,0.3,0.3,0.4,0.4
			C39.5,6.4,39.6,6.2,39.9,6z M48.2,6.9c-0.2-0.2-0.4-0.4-0.5-0.4c-0.2,0-0.3,0.2-0.5,0.3c0.1,0.1,0.2,0.4,0.4,0.4
			C47.8,7.2,47.9,7,48.2,6.9z M35.4,7.4c0.2-0.3,0.3-0.4,0.3-0.5c0-0.2-0.2-0.4-0.4-0.4c-0.2,0-0.4,0.2-0.4,0.4
			C35,7,35.2,7.1,35.4,7.4z M41.6,4.8c-0.1,0-0.1,0.1-0.2,0.1c0.1,0.2,0.2,0.4,0.3,0.6c0,0,0.3-0.1,0.5-0.2
			C42,5.1,41.8,4.9,41.6,4.8z M42.2,6.5c-0.2-0.1-0.4-0.2-0.5-0.2c-0.3,0.1-0.3,0.4-0.2,0.7C41.8,6.8,42,6.7,42.2,6.5z M42.2,5.4
			c-0.3,0.1-0.3,0.2-0.3,0.5c0,0.2,0,0.4,0.3,0.5C42.2,6,42.2,5.7,42.2,5.4z M40.9,6.4c0,0,0,0.1,0,0.1c0.2,0.1,0.4,0.3,0.5,0.4
			c0,0,0.1-0.1,0.1-0.1c-0.1-0.2-0.2-0.4-0.3-0.6C41.3,6.3,41,6.4,40.9,6.4z M44.1,5.4c0.2,0.1,0.2,0.3,0.3,0.3
			c0.1,0,0.2-0.1,0.3-0.2c-0.1-0.1-0.1-0.2-0.2-0.2C44.4,5.2,44.3,5.3,44.1,5.4z M47.3,6.5c0.1-0.1,0.2-0.2,0.3-0.3
			c0-0.1-0.2-0.2-0.2-0.2c-0.1,0-0.2,0.1-0.3,0.2C47.1,6.2,47.2,6.3,47.3,6.5z M38.7,5.8c0.1-0.2,0.2-0.3,0.2-0.3
			c0-0.1-0.2-0.2-0.3-0.2c-0.1,0-0.2,0.1-0.2,0.2C38.4,5.6,38.5,5.7,38.7,5.8z M43,5.6c0.1-0.1,0.3-0.2,0.3-0.3
			c0-0.1-0.2-0.2-0.2-0.3c-0.1,0.1-0.2,0.2-0.3,0.3C42.8,5.4,42.9,5.5,43,5.6z M39.8,4.9c-0.1,0.1-0.2,0.3-0.2,0.3
			c0,0.1,0.2,0.2,0.3,0.2c0.1,0,0.2-0.1,0.2-0.2C40.1,5.2,39.9,5.1,39.8,4.9z M35.8,5.8c-0.1,0.2-0.3,0.3-0.3,0.4
			c0,0.1,0.2,0.2,0.2,0.2c0.1,0,0.3-0.1,0.3-0.2C36,6,35.9,5.9,35.8,5.8z M39.1,6.6c-0.2-0.1-0.3-0.2-0.4-0.2
			c-0.1,0-0.2,0.2-0.2,0.2c0,0.1,0.1,0.2,0.2,0.2C38.8,6.9,38.9,6.8,39.1,6.6z M42.7,6.7C42.8,6.8,42.9,7,43,6.9
			c0.1,0,0.2-0.1,0.3-0.2c-0.1-0.1-0.1-0.2-0.2-0.3C43,6.5,42.8,6.6,42.7,6.7z M36.1,7.6c0.1-0.2,0.3-0.2,0.3-0.3
			c0-0.1-0.2-0.2-0.2-0.2c-0.1,0-0.2,0.1-0.3,0.2C35.8,7.3,36,7.4,36.1,7.6z M39.8,6.4c-0.1,0.1-0.3,0.2-0.2,0.3
			c0,0.1,0.1,0.2,0.2,0.3c0.1,0,0.2-0.1,0.2-0.2C40.1,6.6,39.9,6.5,39.8,6.4z M47.2,7.2C47,7.1,46.9,6.9,46.8,7
			c-0.1,0-0.2,0.2-0.3,0.2c0.1,0.1,0.2,0.2,0.2,0.2C46.9,7.4,47,7.3,47.2,7.2z M44.7,6.8c-0.2-0.1-0.3-0.2-0.3-0.2
			c-0.1,0-0.2,0.1-0.3,0.2c0.1,0.1,0.2,0.2,0.3,0.3C44.5,7.1,44.6,7,44.7,6.8z"/>
		<path d="M41.7,7.8c1.8,0.2,3.7,0.4,5.6,0.6c0.3,0,0.6,0.2,0.9,0.3c0.1,0,0.1,0.2,0.2,0.4c-0.1,0-0.3,0.1-0.4,0.1
			c-0.8-0.1-1.7-0.4-2.5-0.4c-1.5-0.1-2.9-0.2-4.4-0.2c-1.9,0-3.7,0.1-5.5,0.5C35.4,9,35.2,9,35,9.1c-0.1,0-0.2,0-0.4-0.1
			c0.1-0.1,0.1-0.3,0.2-0.3c0.4-0.2,0.9-0.3,1.3-0.4C37.9,8.1,39.7,8,41.7,7.8z"/>
		<path d="M41.5,8.5c1.9,0.2,3.7,0.4,5.6,0.6c0.3,0,0.6,0.2,0.9,0.3c0.1,0,0.1,0.2,0.2,0.3c-0.1,0-0.3,0.1-0.4,0.1
			c-0.7-0.1-1.4-0.4-2.2-0.4c-1.6-0.1-3.1-0.2-4.7-0.2c-1.7,0-3.4,0.1-5,0.4c-0.3,0.1-0.6,0.2-0.8,0.2c-0.1,0-0.3-0.1-0.4-0.1
			c0.1-0.1,0.1-0.3,0.2-0.3C35.4,9.2,35.8,9,36.3,9c1.2-0.1,2.5-0.2,3.7-0.3C40.5,8.6,41,8.6,41.5,8.5C41.5,8.5,41.5,8.5,41.5,8.5z"
			/>
		<path d="M47.8,10.1c-4.2,0.7-8.3,0.7-12.5-0.1c0.4-0.2,0.8-0.3,1.2-0.2c1.2,0.1,2.5,0.3,3.7,0.3c1.4,0,2.8,0,4.2-0.1
			c0.8,0,1.5-0.2,2.3-0.3c0.3,0,0.7,0.1,1.1,0.1C47.8,9.9,47.8,10,47.8,10.1z"/>
		<path d="M41.5,2.9c-0.4-0.7-0.8-1.3-0.7-2.1C40.9,0.4,41.1,0,41.5,0c0.4,0,0.7,0.3,0.8,0.8C42.4,1.6,42,2.2,41.5,2.9z M41.5,1.2
			c0.1-0.2,0.3-0.3,0.3-0.4c0-0.1-0.2-0.2-0.3-0.3c-0.1,0.1-0.3,0.2-0.3,0.3C41.2,0.9,41.4,1,41.5,1.2z"/>
		<path d="M36.3,4.1c-0.5-0.4-1.1-0.7-1.1-1.5c0-0.3,0-0.5,0.3-0.5c0.2,0,0.5,0.1,0.7,0.2c0.1,0.1,0.3,0.3,0.3,0.5
			c0,0.4,0,0.9,0,1.3C36.4,4,36.3,4,36.3,4.1z M36.1,2.5c-0.2-0.1-0.3-0.2-0.4-0.2c-0.1,0-0.2,0.2-0.3,0.2c0.1,0.1,0.2,0.2,0.3,0.2
			C35.8,2.7,35.9,2.6,36.1,2.5z"/>
		<path d="M46.7,4.1c-0.3-0.5-0.2-1.5,0.2-1.9C47,2,47.3,1.9,47.5,2c0.3,0.1,0.3,0.4,0.3,0.6C47.7,3.3,47.2,3.7,46.7,4.1z M47.7,2.5
			c-0.2-0.1-0.3-0.2-0.4-0.2c-0.1,0-0.2,0.2-0.3,0.2c0.1,0.1,0.2,0.2,0.3,0.2C47.4,2.7,47.5,2.6,47.7,2.5z"/>
		<path d="M49.9,5.4c0.1-0.3,0.2-0.7,0.4-1c0.1-0.1,0.4-0.1,0.6-0.2c0,0.2,0.1,0.5,0,0.6c-0.2,0.3-0.5,0.5-0.8,0.7
			C50,5.5,49.9,5.5,49.9,5.4z"/>
		<path d="M33,5.5c-0.3-0.2-0.6-0.5-0.8-0.7c-0.1-0.1-0.2-0.4,0-0.5c0.2-0.1,0.4,0,0.6,0.1C32.9,4.5,33,4.8,33.1,5
			c0,0.1,0,0.3,0,0.4C33.1,5.5,33,5.5,33,5.5z"/>
	</g>
	<g>
		<path d="M35.3,19.9c0-0.9,0.1-1.8,0-2.7c-0.1-0.7-0.6-1.1-1.3-1.2c-0.6-0.1-1.2-0.2-1.5-0.9c0-0.1,0-0.1-0.1-0.2
			c1,0.7,1.8,0.3,2.6-0.2c1.7-1,3.5-1.8,5.5-2c2.2-0.3,4.4-0.1,6.3,1.4c0.3,0.3,0.6,0.6,0.9,0.9c-0.6-0.3-1.1-0.6-1.7-0.8
			c-2.5-0.9-4.9-1-7.4,0c-1.2,0.5-2.3,1-3.5,1.5c0.4,0.4,0.8,0.6,1,1c0.2,0.3,0.3,0.8,0.4,1.2c0.1,0.7,0,1.4,0,2.1
			c1.1,0,2.1,0,3.1,0c0.4,0,0.5-0.3,0.5-0.7c0-1.2,0-2.4,0-3.6c0-0.1-0.1-0.3-0.3-0.4c-0.1-0.1-0.3-0.1-0.5-0.3
			c0.6-0.1,1.2-0.2,1.9-0.3c0,0.2,0,0.3,0,0.5c0,1.1,0,2.3,0,3.4c0,1,0.4,1.3,1.3,1.3c0.4,0,0.7,0,1.1,0c0.4,0,0.6-0.2,0.7-0.5
			c0.1-0.4,0.3-0.7,0.4-1.1c0.3-1,0.9-1.5,1.9-1.5c0.9,0,1.6,0.6,1.8,1.5c0.1,0.2,0.1,0.5,0.1,0.7c0,0.5,0.3,0.8,0.8,0.9
			c0.3,0,0.5,0,0.8,0c0.6,0,0.8-0.2,0.8-0.8c0-1,0-2.1,0-3.1c0-0.4-0.1-0.7-0.6-0.8c-0.1,0-0.1-0.1-0.3-0.2c0.7-0.1,1.3-0.2,2-0.4
			c0,0.2,0,0.3,0,0.4c0,1.3,0,2.7,0,4c0,0.8-0.5,1.4-1.3,1.4c-0.6,0.1-1.2,0.1-1.7,0c-0.3,0-0.6-0.2-1-0.4c-0.5,0.6-1.1,0.9-1.9,0.8
			c-0.4-0.1-0.7-0.3-1.1-0.4c-0.1,0-0.2-0.1-0.4-0.1c-0.9,0-1.8,0.2-2.6,0.1c-0.3,0-0.6-0.3-1-0.4c-0.5,0.5-1.2,0.5-1.9,0.5
			c-2.1,0-4.2,0.1-6.3,0c-0.7,0-1.3,0-2,0.3c-0.7,0.4-1.7,0-2.3-0.8c-0.5-0.7-0.5-1.7-0.1-2.4c0.5-0.8,1.2-1.1,2.1-0.9
			c0.8,0.2,1.2,0.7,1.4,1.4c0.4,1.6,0.4,1.6,2.1,1.6C34.5,19.9,34.9,19.9,35.3,19.9z M29.4,19c0.1,0.3,0.2,0.6,0.3,0.9
			c0.2,0.4,0.6,0.4,0.9,0.3c0.3-0.1,0.6-0.4,0.6-0.6c-0.1-0.6-0.3-1.1-0.5-1.7c-0.1-0.2-0.4-0.4-0.5-0.4c-0.2,0-0.5,0.2-0.6,0.4
			C29.6,18.2,29.5,18.6,29.4,19z M47.4,18.9c-0.1-0.3-0.1-0.7-0.3-1c-0.1-0.2-0.4-0.4-0.6-0.5c-0.2,0-0.5,0.2-0.5,0.4
			c-0.2,0.5-0.4,1.1-0.5,1.6c0,0.1,0,0.1,0,0.2c0.2,0.3,0.5,0.6,1,0.6c0.4,0,0.6-0.3,0.7-0.6C47.3,19.4,47.3,19.2,47.4,18.9z"/>
		<path d="M52.6,15c0.7-0.1,1.3-0.2,2-0.3c0,0.2,0,0.4,0,0.5c0,1.6,0,3.2,0,4.8c0,0.5-0.1,0.7-0.6,0.6c-0.2,0-0.3,0-0.6,0
			c0-0.2,0-0.3,0-0.5c0-1.4,0-2.8,0-4.1c0-0.5-0.1-0.7-0.6-0.8C52.9,15.2,52.8,15.1,52.6,15z"/>
		<path d="M38,26c-0.2,0-0.3,0-0.5,0c0-0.7,0-1.4,0-2.1c0,0-0.1,0-0.1,0c-0.2,0.6-0.4,1.2-0.7,1.8c-0.1,0.2-0.2,0.3-0.3,0.4
			c-0.1-0.1-0.3-0.3-0.3-0.4c-0.2-0.6-0.5-1.2-0.7-1.7c0,0.7,0,1.4,0,2.1c-0.2,0-0.4,0-0.6,0c0-1,0-2,0-3.1c0.1,0,0.3,0,0.4-0.1
			c0.3-0.2,0.5,0,0.6,0.3c0.2,0.6,0.4,1.2,0.6,1.8c0.1-0.1,0.1-0.2,0.2-0.2c0.2-0.5,0.4-1,0.5-1.5c0.1-0.3,0.3-0.4,1-0.4
			C38,23.8,38,24.9,38,26z"/>
		<path d="M44.9,22.8c0.2,0,0.4,0,0.6,0c0.6,0,1.1,0,1.7,0c0.1,0,0.2,0.2,0.4,0.2c-0.1,0.1-0.2,0.2-0.4,0.2c-0.2,0-0.3,0-0.5,0
			c-0.7,0-0.7,0-0.6,0.8c0.3,0,0.6,0,0.9,0c0.1,0,0.2,0.2,0.3,0.3c-0.1,0.1-0.2,0.2-0.3,0.3c-0.1,0-0.2,0-0.3,0
			c-0.7,0-0.7,0-0.6,0.8c0.5,0,1,0,1.5,0c0,0.2,0,0.3,0,0.6c-0.7,0-1.4,0-2,0c-0.1,0-0.2-0.2-0.2-0.3c0-0.6,0-1.2,0-1.8
			c0-0.4,0.2-0.9-0.6-0.9C44.8,22.9,44.9,22.8,44.9,22.8z"/>
		<path d="M29.4,25.4c0.4,0,0.7,0,1.1,0c0.4,0,0.5,0.1,0.4,0.6c-0.6,0-1.3,0-2,0c-0.1,0-0.2-0.2-0.2-0.3c0-0.6,0-1.2,0-1.7
			c0-0.4,0.2-0.9-0.5-1.1c0.1,0,0.2-0.1,0.3-0.1c0.7,0,1.3,0,2,0c0.1,0,0.2,0.1,0.3,0.2c-0.1,0.1-0.2,0.2-0.3,0.3
			c-0.2,0-0.3,0-0.5,0c-0.7,0-0.7,0-0.6,0.8c0.3,0,0.6,0,0.9,0c0.1,0,0.2,0.2,0.3,0.3c-0.1,0.1-0.2,0.2-0.3,0.3c-0.1,0-0.2,0-0.3,0
			C29.3,24.6,29.3,24.6,29.4,25.4z"/>
		<path d="M41.8,25.9c-0.4,0.2-0.7,0.1-0.8-0.3c-0.1-0.6-0.6-0.4-0.9-0.4c-0.3,0-0.6,0.1-0.6,0.4c-0.1,0.4-0.3,0.5-0.8,0.4
			c0.3-0.7,0.5-1.4,0.8-2c0.1-0.3,0.2-0.5,0.3-0.8c0.1-0.2,0.3-0.3,0.5-0.4c0.1,0,0.3,0.2,0.3,0.4C41.1,24,41.4,25,41.8,25.9z
			 M40.7,24.6c-0.1-0.3-0.3-0.6-0.4-1c-0.1,0.4-0.2,0.6-0.4,1C40.1,24.6,40.4,24.6,40.7,24.6z"/>
		<path d="M51.1,25.9c-1.2,0.2-1.3-1-2.1-1.3c0,0.4,0,0.9,0,1.3c-0.2,0-0.4,0-0.5,0c-0.2-1,0.2-2.1-0.3-3.1c0.2,0,0.5-0.1,0.8-0.1
			c0,0.4,0,0.9,0,1.3c0.8-0.3,0.8-1.6,2-1.3c-0.3,0.4-0.6,0.7-0.9,1.1c-0.4,0.4-0.4,0.5,0,0.9C50.4,25.1,50.7,25.5,51.1,25.9z"/>
		<path d="M54.6,25.9c-0.5,0.2-0.7,0-0.8-0.3c-0.1-0.5-0.6-0.4-0.9-0.4c-0.3,0-0.6,0-0.7,0.4c-0.1,0.4-0.4,0.5-0.8,0.3
			c0.4-1,0.8-2,1.2-2.9c0.1-0.3,0.6-0.3,0.7-0.1C53.8,23.9,54.2,24.9,54.6,25.9z M52.7,24.6c0.3,0,0.5,0,0.8,0
			c-0.1-0.3-0.2-0.6-0.4-1C52.9,24,52.8,24.2,52.7,24.6z"/>
		<path d="M32.4,25.4c0.5,0,1,0,1.5,0c0,0.2,0,0.3,0,0.6c-0.7,0-1.3,0-1.9,0c-0.1,0-0.2-0.2-0.2-0.3c0-0.6,0-1.2,0-1.9
			c0-0.3-0.1-0.6-0.2-0.9c0.2,0,0.5-0.1,0.8-0.1C32.4,23.6,32.4,24.5,32.4,25.4z"/>
		<path d="M43.1,25.4c0.5,0,0.8,0,1.2,0c0.1,0,0.2,0.2,0.3,0.3c-0.1,0.1-0.2,0.3-0.3,0.3c-0.6,0-1.2,0-1.7,0c-0.2-1,0.2-2.1-0.3-3.1
			c0.2,0,0.4-0.1,0.8-0.2C43.1,23.6,43.1,24.5,43.1,25.4z"/>
		<path d="M30,16.3c-0.3,0.1-0.6,0.2-0.8,0.2c-0.2,0-0.4-0.3-0.5-0.4c0-0.2,0-0.5,0.2-0.6c0.2-0.1,0.5-0.1,0.7-0.1
			c0.1,0,0.3,0.1,0.4,0c0.4-0.2,0.7-0.2,0.9,0.2c0.2,0.3,0.2,0.6,0,0.8C30.7,16.6,30.4,16.6,30,16.3C30,16.2,30,16.2,30,16.3z"/>
	</g>
</g>
</svg>
