<?xml version="1.0" encoding="utf-8"?>
<!-- Generator: Adobe Illustrator 26.3.1, SVG Export Plug-In . SVG Version: 6.00 Build 0)  -->
<svg version="1.1" id="Layer_1" xmlns="http://www.w3.org/2000/svg" xmlns:xlink="http://www.w3.org/1999/xlink" x="0px" y="0px"
	 viewBox="0 0 84 26" style="enable-background:new 0 0 84 26;" xml:space="preserve">
<style type="text/css">
	.st0{fill:none;stroke:#000000;stroke-width:2;stroke-miterlimit:10;}
</style>
<circle class="st0" cx="42.8" cy="8.3" r="6.8"/>
<path d="M19.4,20.7c-0.3,1.1-0.7,2.1-1,3.1c-0.2,0.5-0.2,0.5-0.7,0.5c-0.3,0-0.5,0-0.8,0c-0.6-1.9-1.2-3.8-1.7-5.7
	c0.6,0,1.1,0,1.6,0c0.2,0.7,0.3,1.3,0.5,2c0.2,0.7,0.3,1.3,0.5,2c0.4-1.3,0.8-2.6,1.2-4c0.4,0,0.7,0,1.1,0c0.4,1.3,0.8,2.6,1.2,3.9
	c0.3-1.3,0.7-2.6,1-3.9c0.5,0,1,0,1.5,0c-0.2,0.6-0.3,1.1-0.5,1.7c-0.4,1.2-0.8,2.5-1.1,3.7c-0.1,0.2-0.1,0.3-0.4,0.3
	c-0.4,0-0.8,0.1-1-0.1c-0.2-0.2-0.3-0.6-0.4-0.9C20,22.5,19.7,21.6,19.4,20.7z"/>
<path d="M42.8,7.6c-0.3,1.1-0.7,2.1-1,3.1c-0.2,0.5-0.2,0.5-0.7,0.5c-0.3,0-0.5,0-0.8,0c-0.6-1.9-1.2-3.8-1.7-5.7c0.6,0,1.1,0,1.6,0
	c0.2,0.7,0.3,1.3,0.5,2c0.2,0.7,0.3,1.3,0.5,2c0.4-1.3,0.8-2.6,1.2-4c0.4,0,0.7,0,1.1,0c0.4,1.3,0.8,2.6,1.2,3.9
	c0.3-1.3,0.7-2.6,1-3.9c0.5,0,1,0,1.5,0C47,6,46.8,6.6,46.6,7.1c-0.4,1.2-0.8,2.5-1.1,3.7c-0.1,0.2-0.1,0.3-0.4,0.3
	c-0.4,0-0.8,0.1-1-0.1c-0.2-0.2-0.3-0.6-0.4-0.9C43.4,9.4,43.1,8.5,42.8,7.6z"/>
<path d="M29.4,24.3c-0.5,0-1,0-1.5,0c0-0.1,0-0.2,0-0.3c0-0.8,0-1.6,0-2.4c0-1-0.6-1.1-1.5-1c-0.2,0-0.3,0.1-0.3,0.3
	c0,1,0,2.1,0,3.1c0,0.1,0,0.2,0,0.3c-0.5,0-1,0-1.5,0c0-2.2,0-4.3,0-6.5c0.5,0,1,0,1.5,0c0,0.7,0,1.4,0,2.1c0.2,0,0.4-0.1,0.5-0.1
	c0.5,0,1-0.1,1.5,0c0.9,0.1,1.3,0.7,1.3,1.4C29.4,22.3,29.4,23.3,29.4,24.3z"/>
<path d="M47.2,22.1c0,0.7,0,1.4,0,2.2c-0.5,0-1,0-1.6,0c0-0.1,0-0.2,0-0.3c0-1.6,0-3.3,0-4.9c0-0.3,0.1-0.4,0.4-0.4
	c1-0.2,2-0.3,3-0.1c1.3,0.3,1.9,1.2,1.6,2.2c-0.2,0.5-0.6,0.9-1.1,1.1C48.7,22.2,48,22.2,47.2,22.1z M47.2,19.3c0,0.7,0,1.4,0,2.1
	c0.9,0.1,1.4,0,1.7-0.4c0.3-0.5,0.3-0.9-0.1-1.4C48.4,19.1,47.8,19.2,47.2,19.3z"/>
<path d="M56.4,22.1c0,1.4-1,2.3-2.6,2.3c-1.6,0-2.6-0.9-2.6-2.4c0-1.4,1.1-2.3,2.6-2.3C55.4,19.8,56.4,20.7,56.4,22.1z M54.9,22.1
	c-0.1-0.4-0.2-0.7-0.3-1c-0.1-0.3-0.4-0.5-0.8-0.5c-0.4,0-0.7,0.2-0.8,0.5c-0.3,0.7-0.3,1.4,0,2.1c0.1,0.3,0.4,0.5,0.8,0.5
	c0.4,0,0.7-0.2,0.8-0.5C54.7,22.8,54.8,22.4,54.9,22.1z"/>
<path d="M61.6,24.3c-0.5,0-1,0-1.5,0c0-0.1,0-0.2,0-0.3c0-1.2,0-2.5,0-3.7c0-0.2,0.1-0.3,0.3-0.4c1-0.2,2-0.3,3-0.1
	c1,0.2,1.4,0.7,1.4,1.6c0,0.9,0,1.9,0,2.9c-0.5,0-1,0-1.5,0c0-0.1,0-0.2,0-0.3c0-0.8,0-1.6,0-2.4c0-0.8-0.7-1.3-1.6-0.9
	c-0.1,0-0.1,0.2-0.1,0.3c0,1,0,2,0,3C61.6,24.1,61.6,24.2,61.6,24.3z"/>
<path d="M41.4,23.3c0.1,0.3,0.2,0.5,0.3,0.8c-0.7,0.3-1.4,0.3-2.1,0.3c-0.2,0-0.5,0-0.7-0.1c-1.9-0.3-2.8-2.2-1.7-3.7
	c0.2-0.3,0.6-0.6,1-0.7c0.7-0.3,1.5-0.3,2.3-0.1c1,0.3,1.6,1.2,1.4,2.2c-1.2,0.1-2.3,0.3-3.5,0.4c0.1,0.6,0.5,1,1.3,1
	c0.3,0,0.6,0,0.9,0C40.8,23.5,41.1,23.4,41.4,23.3z M40.4,21.6c0-0.8-0.4-1.2-1.1-1.2c-0.7,0-1.1,0.6-1,1.4
	C39,21.8,39.7,21.7,40.4,21.6z"/>
<path d="M36.1,23.5c0.1,0.9,0.2,0.9-0.8,0.9c-1.1,0-1.6-0.5-1.6-1.5c0-0.7,0-1.5,0-2.2c0,0,0,0,0-0.1c-0.2,0-0.4,0-0.6,0
	c0-0.3,0-0.5,0-0.8c0.2,0,0.4,0,0.7,0c0-0.3,0-0.6,0-1c0.5-0.1,1-0.2,1.6-0.3c0,0.4,0,0.8,0,1.3c0.3,0,0.6,0,0.9,0
	c0,0.3,0,0.5,0,0.8c-0.3,0-0.6,0-0.9,0c0,0.9,0,1.7,0,2.5c0,0.3,0.2,0.4,0.5,0.4C35.9,23.6,36,23.5,36.1,23.5z"/>
<path d="M67.9,18.5c0,0.5,0,0.9,0,1.3c0.3,0,0.6,0,0.9,0c0,0.3,0,0.5,0,0.8c-0.3,0-0.6,0-0.9,0c0,0.4,0,0.8,0,1.1c0,0.4,0,0.8,0,1.2
	c0,0.5,0.2,0.7,0.7,0.6c0.1,0,0.1,0,0.2,0c0,0,0,0,0,0.1c0,0.8,0,0.8-0.9,0.8c-1.1,0-1.6-0.5-1.6-1.5c0-0.8,0-1.5,0-2.3
	c-0.2,0-0.4,0-0.7,0c0-0.2,0-0.5,0-0.8c0.2,0,0.4,0,0.7,0c0-0.3,0-0.6,0-1C66.9,18.8,67.4,18.7,67.9,18.5z"/>
<path d="M32.1,24.3c-0.5,0-1,0-1.5,0c0-1.5,0-3,0-4.5c0.5,0,1,0,1.5,0C32.1,21.3,32.1,22.8,32.1,24.3z"/>
<path d="M57.4,19.8c0.5,0,1,0,1.5,0c0,1.5,0,3,0,4.5c-0.5,0-1,0-1.5,0C57.4,22.8,57.4,21.4,57.4,19.8z"/>
<path d="M31.3,19.2c-0.2-0.1-0.4-0.1-0.6-0.3c-0.3-0.2-0.3-0.5,0-0.8c0.3-0.3,1-0.3,1.4,0c0.2,0.2,0.2,0.6-0.1,0.8
	C31.8,19.1,31.5,19.1,31.3,19.2z"/>
<path d="M58.1,19.2c-0.2-0.1-0.4-0.1-0.6-0.3c-0.3-0.2-0.3-0.5,0-0.8c0.3-0.3,1-0.3,1.4,0c0.2,0.2,0.2,0.6-0.1,0.8
	C58.6,19.1,58.3,19.1,58.1,19.2z"/>
</svg>
