<?xml version="1.0" encoding="utf-8"?>
<!-- Generator: Adobe Illustrator 26.3.1, SVG Export Plug-In . SVG Version: 6.00 Build 0)  -->
<svg version="1.1" id="Layer_1" xmlns="http://www.w3.org/2000/svg" xmlns:xlink="http://www.w3.org/1999/xlink" x="0px" y="0px"
	 viewBox="0 0 84 26" style="enable-background:new 0 0 84 26;" xml:space="preserve">
<style type="text/css">
	.st0{fill:#FFFFFF;}
</style>
<g>
	<path d="M16.8,1.8c0.6,1.6,0.7,3.2,0.3,4.9C16.9,7.4,17,8.2,17,9c0,0.3,0,0.6-0.1,0.8c-1.1,1.7-1,3.7-1.5,5.6
		c-1,3.5-3.1,5.3-6.3,5.7c1.4-1.8,2.8-3.6,4.3-5.5c0.2,0.3,0.5,0.5,0.9,1c-0.2-0.6-0.3-1-0.5-1.2c-0.2-0.1-0.7-0.2-0.9,0
		c-0.9,0.8-1.8,1.6-2.8,2.4c1-1.6,1.9-3.2,2.9-4.9c0,0-0.1-0.1-0.1-0.1c-0.8,0.8-1.6,1.7-2.4,2.5c-0.1,0-0.1-0.1-0.2-0.1
		c0.9-1.8,1.8-3.6,2.6-5.3c0,0-0.1-0.1-0.1-0.1c-0.8,1-1.6,2-2.4,3c-0.1,0-0.2-0.1-0.2-0.1c0.5-1.5,0.9-3,1.4-4.5
		c0.3-0.9,0.9-1.3,1.8-0.5c0.3,0.3,0.7,0.5,1.3,0.8c-1.4-2.2-3.2-2.3-4.3-0.3c-0.7,1.3-1,2.8-1.4,4.3c-0.4,1.5-0.6,3.1-0.9,4.6
		c0,0.1-0.1,0.1-0.4,0.3c0-1.5,0.3-2.8-0.1-4c-0.7-2.1,0.5-3.8,1-5.5c0.5-1.7,1.3-3.5,3.5-4.2c1.2-0.4,2.3-1.3,3.5-1.9
		C16,1.8,16.4,1.8,16.8,1.8z"/>
	<path d="M69.1,21.2c0-5.5,0-10.9,0-16.4c2.7,0,5.5-0.2,8.3,0.1c3.5,0.3,5.8,2.8,6.4,6.3c0.3,2,0.2,3.9-0.6,5.7
		c-1.1,2.5-3,4.1-5.7,4.3C74.7,21.4,71.8,21.2,69.1,21.2z M72.5,20.7c0.9,0,1.8,0,2.6,0c2.4,0,3.5-0.7,4.4-2.9
		c1-2.6,1.2-5.2,0.5-7.9c-1.1-4.4-3.4-5-7.5-4.4C72.5,10.5,72.5,15.5,72.5,20.7z"/>
	<path d="M19,8.4c0.2,4.2,0.5,8.5,0.7,12.8c-0.6,0-1.2,0-1.9,0c0.1-5.4-0.3-10.9,0.7-16.3c2.2-0.4,2.3-0.4,3.4,1.5
		c2.5,3.9,4.9,7.8,7.6,11.7c-0.2-4.4-0.5-8.7-0.7-13.2c0.6,0,1.2,0,2,0c0,5.5,0,10.9,0,16.4c-0.9,0-2,0.1-3.1,0
		c-0.4,0-0.7-0.5-1-0.9c-2.5-3.9-4.9-7.8-7.4-11.7c-0.1-0.2-0.2-0.3-0.3-0.4C19.1,8.3,19,8.3,19,8.4z"/>
	<path d="M58.8,5.4c0,2.3,0,4.4,0,6.6c1.4,0,2.8,0,4.1,0c0.3,0,0.5,0.2,0.8,0.4c-0.3,0.2-0.5,0.5-0.8,0.5c-1.3,0.1-2.6,0-4.1,0
		c0,2.5,0,4.9,0,7.6c2.7-0.4,5.4-0.8,8.2-1.3c0,0.6,0,1.2,0,1.9c-3.9,0-7.8,0-11.7,0c0-5.4,0-10.8,0-16.3c3.5,0,7.1,0,10.7,0
		c0,0.6,0,1.2,0,1.9C63.7,6.3,61.3,5.9,58.8,5.4z"/>
	<path d="M38,4.8c5.1,0,10.2,0,15.3,0c0,0.8,0,1.4,0,2.2c-2.2-0.5-4.4-1-6.4-1.4C47,6.8,47.2,8,47.3,9.1c0,3.3,0,6.7,0,10.1
		c0,0.7,0.1,1.3,0.2,2.1c0,0,0,0,0,0c-3.2,0.2-3.5,0-3.5-3.2c0-3.6,0-7.2,0-10.8c0-1.7-0.1-1.7-1.8-1.4C40.8,6.2,39.4,6.6,38,7
		C38,6.2,38,5.6,38,4.8z"/>
	<path d="M0.1,3c0.7,0,1.6,0,2.6,0C3.6,3.1,4,3.8,4,4.6c0,1.6,0,3.3,0,4.9c0,2.3,0,4.5,0.1,6.8c0.1,1.9,0.6,3.8,2.8,4.6
		c-3.4,0.3-6-1.8-6.3-5.2C0.4,12.5,0.6,9.2,0.5,6C0.5,5,0.2,4,0.1,3z"/>
	<path d="M36.5,21.2C33.2,21.5,33,21.3,33,18c0-3.7,0-7.3,0-11c0-0.7-0.1-1.4-0.2-2.2c0,0,0,0,0,0c3.2-0.2,3.4,0,3.4,3.1
		c0,3.8,0,7.6,0,11.4C36.3,20,36.4,20.6,36.5,21.2z"/>
	<path class="st0" d="M72.5,20.7c0-5.1,0-10.2,0-15.2c4.2-0.6,6.4-0.1,7.5,4.4c0.7,2.7,0.5,5.3-0.5,7.9c-0.9,2.2-2,2.9-4.4,2.9
		C74.3,20.7,73.4,20.7,72.5,20.7z"/>
</g>
</svg>
