<?xml version="1.0" encoding="utf-8"?>
<!-- Generator: Adobe Illustrator 26.3.1, SVG Export Plug-In . SVG Version: 6.00 Build 0)  -->
<svg version="1.1" id="Layer_1" xmlns="http://www.w3.org/2000/svg" xmlns:xlink="http://www.w3.org/1999/xlink" x="0px" y="0px"
	 viewBox="0 0 84 26" style="enable-background:new 0 0 84 26;" xml:space="preserve">
<g>
	<path d="M35.4,0c1.5,1.4,2.9,2.7,4.4,4.1c-0.7,0.6-1.4,1.2-2.2,1.9c-0.3-0.2-0.5-0.4-0.8-0.8C37.2,5,37.5,4.9,38,4.6
		c-1.3-1.1-2.3-2-3.4-2.9c-0.1-0.1-0.5,0-0.6,0.1c-0.7,0.4-0.7,0.4-1.1-0.2c0.5-0.6,1-1.2,1.5-1.7C34.7,0,35.1,0,35.4,0z"/>
	<path d="M43.9,26.2c-8,0-15.9,0-23.9,0c-1.7,0-3.3-0.4-4.7-1.5c-1.1-0.9-1.7-2-1.8-3.4c0-2.4-0.1-4.9,0-7.3
		c0.1-2.1,1.4-3.5,3.3-4.4c1.5-0.7,3.1-0.7,4.8-0.7c2.6,0,5.3,0,7.9,0c0.4,0,0.9-0.2,0.9,0.5c0,0.7-0.4,0.6-0.9,0.6
		c-3.2,0-6.4,0-9.6,0.1c-0.9,0-1.8,0.2-2.5,0.6c-1.7,0.8-2.5,2.1-2.4,4c0.1,1.9,0,3.8,0,5.8c0,2.3,1.2,3.9,3.5,4.4
		c0.6,0.1,1.3,0.2,2,0.2c15.6,0,31.2,0,46.8-0.1c1.1,0,2.3-0.2,3.4-0.6c1.4-0.5,2.4-1.6,2.4-3.2c0-2.5,0-5,0-7.5
		c0-1.7-1.7-3.3-3.7-3.5c-1.1-0.1-2.2-0.2-3.3-0.2c-8.7,0-17.3,0-26,0c-0.2,0-0.4-0.3-0.6-0.5c0.2-0.2,0.4-0.4,0.6-0.6
		c0.1-0.1,0.4,0,0.6,0c8.9,0,17.8,0,26.6,0c1.2,0,2.4,0.2,3.6,0.5c2.1,0.5,3.6,2.5,3.6,4.7c0,2.1,0,4.2,0,6.3
		c-0.1,3.4-2.4,5.7-5.8,5.7c-4.8,0-9.6,0-14.4,0C50.7,26.2,47.3,26.2,43.9,26.2C43.9,26.2,43.9,26.2,43.9,26.2z"/>
	<path d="M41.6,5.7c-2,1.7-3.9,3.4-5.9,5c-0.7,0.5-1.4,0.3-1.9-0.2c-1.7-1.4-3.4-2.9-5.1-4.3c-0.3-0.2-0.7-0.5-0.3-0.9
		c0.4-0.3,0.7-0.8,1.3-0.3c1.1,0.9,2.1,1.8,3.1,2.7c0.4,0.4,0.9,0.7,1.3,1.1c0.5,0.5,0.8,0.5,1.3,0c1.3-1.2,2.6-2.3,3.9-3.4
		C40.6,4.4,40.6,4.4,41.6,5.7z"/>
	<path d="M37,6.5c-0.6,0.5-1.2,1.1-1.8,1.5c-0.2,0.1-0.6,0.1-0.7,0c-1.6-1.3-3.1-2.6-4.7-4c0.6-0.6,1.2-1.1,1.8-1.6
		c0.5-0.4,0.8,0,1,0.4c-0.8,0.9-0.8,0.9,0.2,1.7c0.7,0.5,1.3,1.1,1.9,1.7c0.4,0.3,0.6,0.4,1,0C36.3,5.8,36.4,5.9,37,6.5z"/>
</g>
<g>
	<path d="M28,16.9c-0.4,1.5-0.8,3.1-1.3,4.6c-0.2,0.5-0.6,1.1-1,1.3c-0.7,0.4-1.5-0.1-1.8-1c-0.4-1.2-0.6-2.4-1-3.7
		c-0.1-0.3-0.2-0.6-0.5-0.9c-0.1,0.3-0.1,0.6-0.2,0.9c-0.1,1.3-0.2,2.6-0.3,3.9c0,0.6-0.2,0.8-0.8,0.8c-0.7,0-1.5,0-2.2,0
		c-0.5,0-0.7-0.1-0.6-0.6c0.3-2.6,0.5-5.2,0.9-7.9c0.1-1.2,1-1.8,2.4-1.9c1.5-0.1,2.3,0.4,2.7,1.5c0.3,1,0.6,2.1,1.1,3.2
		c0.3-0.9,0.5-1.8,0.8-2.8c0.4-1.4,1.2-2,2.7-2c1.2,0,2.2,0.8,2.4,2.1c0.4,2.6,0.6,5.2,0.9,7.8c0,0.2-0.3,0.6-0.5,0.6
		c-0.8,0.1-1.6,0-2.5,0c-0.6,0-0.7-0.4-0.7-0.8c-0.1-1.3-0.2-2.6-0.2-3.9c0-0.4-0.1-0.7-0.1-1.1C28.1,16.9,28,16.9,28,16.9z"/>
	<path d="M63.5,22.9c-1.9,0.1-3.5-0.6-4.8-1.9c-1.9-1.9-1.9-4.7-0.1-6.6c2.6-2.8,7.4-2.7,9.9,0.2c1.7,2,1.5,4.9-0.5,6.7
		C66.6,22.4,65.4,22.9,63.5,22.9z M65.8,17.6c0-1.2-1-2.1-2.3-2.1c-1.2,0-2.3,1-2.3,2.1c0,1.1,1.1,2.1,2.3,2.1
		C64.7,19.7,65.8,18.8,65.8,17.6z"/>
	<path d="M38.6,19.1c0-1.1-0.1-2.1,0-3.2c0.3-2.5,1.6-3.3,4.1-3.6c1.3-0.2,2.6,0.1,3.6,1c1.9,1.5,1.9,4.2-0.1,5.6
		c-0.9,0.6-1.9,1-3,0.9c-0.2,0-0.5-0.3-0.6-0.5c-0.1-0.4,0-0.8,0-1.3c-0.1-0.7,0-1.2,0.9-1.3c0.2,0,0.5-0.6,0.5-0.8
		c-0.1-0.2-0.5-0.5-0.8-0.5c-0.4,0-0.8,0.1-0.8,0.7c0,1.8-0.1,3.6-0.1,5.4c0,1.6,0.2,1.4-1.4,1.4c-0.6,0-1.2,0-1.7,0
		c-0.6,0-0.7-0.2-0.7-0.7C38.6,21,38.6,20.1,38.6,19.1C38.6,19.1,38.6,19.1,38.6,19.1z"/>
	<path d="M56.4,13.9c0,0.3,0,0.5,0,0.8c0,0.5-0.3,0.7-0.8,0.8c-0.7,0.1-1.5,0.2-2.2,0.4c-0.8,0.2-1.2,0.8-1.2,1.7
		c0,0.8,0.4,1.5,1.1,1.7c0.7,0.2,1.4,0.4,2.1,0.4c0.6,0,0.9,0.3,0.9,0.9c0,0.1,0,0.3,0,0.4c0,1.8-0.1,1.9-1.9,1.7
		c-1.2-0.2-2.4-0.4-3.4-0.9c-1.6-0.8-2.7-2.3-2.6-4.2c0-1.9,1.1-3.2,2.7-4.1c1.4-0.8,3-0.9,4.6-0.9c0.4,0,0.6,0.2,0.6,0.6
		C56.4,13.3,56.4,13.6,56.4,13.9C56.4,13.9,56.4,13.9,56.4,13.9z"/>
	<path d="M33.3,17.5c0-1.4,0-2.8,0-4.3c0-0.6,0.2-0.8,0.8-0.8c0.7,0,1.5,0,2.2,0c0.6,0,0.8,0.2,0.8,0.8c0,2.9,0,5.9,0,8.8
		c0,0.6-0.2,0.7-0.8,0.7c-0.8,0-1.5,0-2.3,0c-0.6,0-0.8-0.2-0.7-0.7C33.4,20.5,33.3,19,33.3,17.5z"/>
</g>
</svg>
